<svg width="127" height="127" viewBox="0 0 127 127" fill="none" xmlns="http://www.w3.org/2000/svg">
<g clip-path="url(#clip0_112_1133)">
<path d="M59.486 0.317834C64.3331 -0.427232 69.502 0.0765344 73.8412 2.48107C79.7975 5.67723 84.0647 11.9172 84.6235 18.682C85.4278 25.0532 83.3281 31.8435 78.6545 36.3308C74.8614 40.2678 69.4174 42.4141 63.9775 42.4776C58.6012 42.4818 53.2249 42.4691 47.8485 42.4818C45.008 42.431 42.396 45.0218 42.4764 47.8709C42.4595 51.5369 42.4764 55.203 42.4722 58.8691C42.4426 62.4505 42.7135 66.1208 41.6594 69.6006C40.1439 75.2013 36.0841 80.0061 30.9152 82.6054C25.886 85.0734 19.8958 85.4205 14.5576 83.8119C7.23393 81.5978 1.45967 75.0023 0.291267 67.4331C-0.2633 63.5638 -0.0770333 59.521 1.29457 55.8338C3.46627 49.9664 8.42773 45.1827 14.4137 43.3243C17.2712 42.3167 20.3446 42.2617 23.3375 42.3125C27.8545 42.2998 32.3715 42.3294 36.8884 42.304C39.729 42.3167 42.3029 39.7556 42.2986 36.9108C42.324 31.4032 42.2944 25.8956 42.3113 20.3881C42.4129 15.27 44.4365 10.2027 47.9967 6.5112C51.0235 3.28117 55.1129 1.05443 59.486 0.317834Z" fill="#5680E9"/>
<path d="M101.413 42.702C106.586 41.8087 112.132 42.431 116.699 45.1234C121.936 48.1418 125.759 53.5308 126.754 59.5083C127.49 64.5544 126.965 69.9477 124.298 74.3885C120.844 80.4633 114.159 84.54 107.166 84.7686C101.519 84.8236 95.8673 84.7601 90.22 84.7982C87.3583 84.7517 84.7294 87.3425 84.7844 90.2127C84.7505 95.8811 84.8437 101.554 84.7421 107.222C84.4965 113.598 81.1268 119.74 75.869 123.364C72.1902 125.972 67.6352 127.271 63.1351 127.034C56.1332 127.259 49.3218 123.381 45.5837 117.522C42.7982 113.238 41.8161 107.929 42.4849 102.896C43.3316 94.882 49.381 87.7404 57.1238 85.5391C60.7052 84.3791 64.511 84.6501 68.2194 84.6247C71.8939 84.6204 75.5684 84.6374 79.243 84.6204C82.092 84.6755 84.6405 82.0466 84.6066 79.2187C84.6362 73.7069 84.6066 68.1993 84.6193 62.6875C84.7421 56.4815 87.7858 50.3897 92.7515 46.6517C95.2661 44.6535 98.2887 43.3708 101.413 42.702Z" fill="#5680E9"/>
</g>
<defs>
<clipPath id="clip0_112_1133">
<rect width="127" height="127" fill="white"/>
</clipPath>
</defs>
</svg>
