<svg width="134" height="134" viewBox="0 0 134 134" fill="none" xmlns="http://www.w3.org/2000/svg">
<path d="M62.7362 0.335187C67.8482 -0.450558 73.2995 0.080713 77.8758 2.61653C84.1575 5.9872 88.6579 12.5678 89.2472 19.702C90.0955 26.421 87.881 33.582 82.9521 38.3144C78.9518 42.4663 73.2102 44.7298 67.4732 44.7968C61.8031 44.8012 56.133 44.7878 50.4629 44.8012C47.4671 44.7477 44.7125 47.4799 44.7973 50.4845C44.7794 54.3507 44.7973 58.2169 44.7928 62.0832C44.7616 65.8601 45.0473 69.7308 43.9356 73.4006C42.3373 79.3071 38.0557 84.3742 32.6044 87.1154C27.3004 89.7182 20.9829 90.0843 15.353 88.3878C7.62919 86.0529 1.53942 79.0972 0.307181 71.1148C-0.277686 67.0343 -0.0812423 62.7707 1.3653 58.8821C3.65566 52.6944 8.88821 47.6496 15.2012 45.6897C18.2148 44.6271 21.4562 44.5691 24.6127 44.6227C29.3764 44.6093 34.1402 44.6405 38.904 44.6137C41.8997 44.6271 44.6142 41.9261 44.6098 38.926C44.6366 33.1177 44.6053 27.3095 44.6232 21.5012C44.7303 16.1037 46.8644 10.7597 50.6192 6.8667C53.8114 3.46031 58.1242 1.112 62.7362 0.335187Z" fill="#5680E9"/>
<path d="M106.955 45.0343C112.411 44.0923 118.259 44.7486 123.077 47.588C128.599 50.7711 132.631 56.4544 133.68 62.7582C134.457 68.0799 133.903 73.7676 131.091 78.4508C127.447 84.8573 120.398 89.1566 113.022 89.3977C107.066 89.4557 101.106 89.3888 95.1502 89.4289C92.1321 89.3798 89.3596 92.1121 89.4176 95.139C89.3819 101.117 89.4802 107.099 89.373 113.077C89.1141 119.801 85.5602 126.279 80.0151 130.1C76.1354 132.85 71.3314 134.221 66.5855 133.971C59.201 134.208 52.0174 130.118 48.0751 123.939C45.1374 119.421 44.1016 113.823 44.807 108.515C45.6999 100.063 52.0799 92.5317 60.2457 90.2102C64.0228 88.987 68.0365 89.2727 71.9475 89.2459C75.8228 89.2414 79.6981 89.2593 83.5734 89.2414C86.5781 89.2995 89.2659 86.527 89.2301 83.5448C89.2614 77.732 89.2301 71.9238 89.2435 66.111C89.373 59.5661 92.5831 53.1418 97.8201 49.1996C100.472 47.0924 103.66 45.7397 106.955 45.0343Z" fill="#5680E9"/>
</svg>
