<svg width="56" height="56" viewBox="0 0 56 56" fill="none" xmlns="http://www.w3.org/2000/svg">
<circle cx="28" cy="28" r="28" fill="#5680E9"/>
<path fill-rule="evenodd" clip-rule="evenodd" d="M26.5093 10.1961C24.423 10.5414 22.3665 11.6538 21.0455 13.1513C17.8088 16.8208 17.9859 22.1218 21.4584 25.5102C24.9202 28.8879 30.3678 29.0678 34.1068 25.9279C35.2601 24.9593 36.3253 23.3886 36.8076 21.9456C38.2066 17.7585 36.3017 13.1685 32.3255 11.1462C30.4995 10.2174 28.4262 9.87873 26.5093 10.1961ZM29.0193 12.7525C32.5684 13.2884 35.0642 16.5682 34.5475 20.0172C33.8559 24.6321 28.5941 27.0532 24.5429 24.6205C22.2267 23.2297 20.9877 20.5343 21.4917 17.9829C22.1821 14.4881 25.4546 12.2143 29.0193 12.7525ZM36.7185 26.8924C36.5261 26.9854 36.298 27.1763 36.2116 27.3166C35.791 28.0002 35.9089 28.442 36.7501 29.3333C38.6128 31.3072 39.7157 33.8111 39.8944 36.4723C39.9651 37.5257 39.8896 37.7381 39.2303 38.34C36.6967 40.6525 29.2457 41.7343 22.9895 40.698C20.2853 40.2501 17.8883 39.3526 16.8209 38.3883C16.1215 37.7566 16.0395 37.5429 16.1037 36.5204C16.2693 33.8789 17.3813 31.3058 19.1759 29.4113C19.8454 28.7046 19.9972 28.4165 19.9436 27.9532C19.8436 27.0879 18.841 26.5311 18.0784 26.9174C17.7613 27.0781 16.8535 28.0199 16.2563 28.8077C14.5694 31.033 13.6 33.707 13.4527 36.5416C13.3727 38.0798 13.6575 38.8765 14.6592 39.9166C18.2134 43.6067 29.1862 44.8553 36.7699 42.4327C38.8461 41.7694 40.362 40.9329 41.3535 39.9034C42.3417 38.8773 42.627 38.0738 42.5473 36.5416C42.3698 33.1277 40.9724 29.9014 38.6493 27.5412C37.8197 26.6983 37.4073 26.5598 36.7185 26.8924Z" fill="white"/>
</svg>
