<svg width="30" height="35" viewBox="0 0 30 35" fill="none" xmlns="http://www.w3.org/2000/svg">
<path d="M8.40601 16.5639L8.45839 16.5102L8.40602 16.5639C11.8958 19.9689 17.387 20.1497 21.155 16.9853C22.319 16.0078 23.3921 14.4253 23.8787 12.9693L23.8076 12.9456L23.8787 12.9693C25.2897 8.74644 23.3683 4.11826 19.3595 2.07937C17.5201 1.14372 15.4307 0.801978 13.497 1.12207C11.3948 1.47009 9.32237 2.59041 7.9893 4.10171C4.72648 7.80078 4.90448 13.1472 8.40601 16.5639ZM23.6859 17.8249L23.6859 17.8249C23.5829 17.8747 23.4726 17.9494 23.3771 18.0293C23.2825 18.1085 23.197 18.1973 23.1477 18.2773L23.1477 18.2773C22.9317 18.6284 22.8458 18.9314 22.9352 19.2664C23.0225 19.5935 23.2745 19.9387 23.6955 20.3848C25.5465 22.3462 26.642 24.8338 26.8196 27.4773C26.8551 28.0058 26.852 28.3071 26.7655 28.5503C26.6798 28.7911 26.5092 28.9838 26.1797 29.2846C25.5566 29.8533 24.6262 30.3504 23.4784 30.7591C22.3315 31.1675 20.9721 31.4861 19.4951 31.7006C16.5408 32.1296 13.1218 32.1408 10.0018 31.624C8.65384 31.4008 7.3833 31.0656 6.31769 30.6666C5.25061 30.267 4.39465 29.8056 3.87113 29.3326C3.52123 29.0166 3.33878 28.8157 3.24596 28.574C3.15267 28.331 3.14634 28.0376 3.17851 27.5251L3.11854 27.5213L3.17851 27.5251C3.34306 24.9009 4.448 22.3444 6.23039 20.4629C6.56516 20.1095 6.77707 19.8542 6.89728 19.6259C7.02018 19.3925 7.04636 19.1891 7.01808 18.9446C6.9124 18.0298 5.85581 17.4395 5.04455 17.8505C4.95587 17.8954 4.8334 17.9903 4.69419 18.1136C4.55325 18.2385 4.38992 18.3974 4.2184 18.5753C3.87541 18.9311 3.49716 19.3658 3.19652 19.7624C1.50038 21.9999 0.525869 24.6884 0.37777 27.5377C0.337518 28.3116 0.388544 28.9065 0.579669 29.4412C0.770956 29.9762 1.10019 30.4443 1.60522 30.9686C2.50473 31.9026 3.86867 32.6775 5.52136 33.2777C7.175 33.8782 9.12274 34.3056 11.195 34.5414C15.3387 35.013 19.9888 34.7193 23.7927 33.5041C25.8751 32.8389 27.404 31.9974 28.4075 30.9554C28.9059 30.4379 29.2318 29.9716 29.4215 29.4374C29.611 28.9037 29.6623 28.3086 29.6222 27.5377C29.4438 24.1062 28.0392 20.8623 25.7028 18.4886C25.2875 18.0667 24.9662 17.8095 24.655 17.7049C24.3365 17.5979 24.04 17.6539 23.6859 17.8249ZM16.0081 3.82669C19.5183 4.35666 21.9836 7.60005 21.4733 11.006C20.7898 15.5665 15.5884 17.9623 11.5815 15.5562C9.291 14.1808 8.06768 11.5163 8.56526 8.99741C9.24771 5.54279 12.4823 3.29437 16.0081 3.82669Z" fill="white" stroke="white" stroke-width="0.15"/>
</svg>
