<svg width="56" height="56" viewBox="0 0 56 56" fill="none" xmlns="http://www.w3.org/2000/svg">
<circle cx="28" cy="28" r="28" fill="#5680E9"/>
<path fill-rule="evenodd" clip-rule="evenodd" d="M19.0945 15.7805C15.2223 16.3825 12.2052 19.2324 11.3524 23.0936C11.1463 24.0266 11.1497 25.8127 11.3593 26.7905C11.5714 27.78 11.7735 28.3517 12.254 29.3225C12.9586 30.746 13.827 31.7841 16.1008 33.9206C18.424 36.1037 20.9618 38.3183 24.8747 41.5771C26.1055 42.6021 27.1986 43.4858 27.3039 43.5408C27.5714 43.6805 28.1923 43.7257 28.4907 43.6272C28.7591 43.5385 29.0313 43.3261 31.352 41.3936C36.3011 37.2727 40.4128 33.5821 41.9309 31.8983C42.8407 30.8891 43.3184 30.2077 43.7826 29.2567C44.217 28.3669 44.4389 27.7258 44.6457 26.7619C44.8366 25.8726 44.8534 24.0764 44.6787 23.2392C44.0688 20.3164 42.2673 17.9454 39.6886 16.6715C37.1557 15.4201 34.2701 15.3504 31.6934 16.4786C30.5636 16.9732 29.7672 17.5342 28.642 18.6281L28.0019 19.2502L27.2943 18.5633C26.2197 17.52 25.362 16.9277 24.2047 16.4294C22.6709 15.769 20.7433 15.5243 19.0945 15.7805ZM21.5622 18.7419C22.5353 18.9088 23.355 19.2356 24.1541 19.7752C24.3711 19.9217 25.1403 20.6236 25.8634 21.335C26.8545 22.3098 27.243 22.6502 27.4412 22.7168C27.8073 22.8399 28.3795 22.824 28.6574 22.6831C28.784 22.6189 29.4496 22.0127 30.1366 21.336C30.8236 20.6593 31.5827 19.9665 31.8236 19.7966C32.4021 19.3882 33.1331 19.0565 33.9089 18.8501C34.4487 18.7066 34.6808 18.682 35.4946 18.682C36.3169 18.682 36.5381 18.706 37.1052 18.8564C40.1351 19.6605 42.1159 22.4876 41.8008 25.5586C41.6734 26.8013 41.1834 28.0641 40.4391 29.0682C39.7769 29.9617 37.8317 31.8623 35.2298 34.1582C32.7252 36.3682 28.1087 40.2724 28 40.2724C27.9681 40.2724 27.1933 39.6457 26.2782 38.8798C20.5339 34.0723 16.6092 30.4825 15.5816 29.0961C14.4121 27.5183 13.9385 25.5949 14.2689 23.7653C14.8696 20.4386 18.1759 18.1613 21.5622 18.7419Z" fill="white"/>
</svg>
