<svg width="23" height="19" viewBox="0 0 23 19" fill="none" xmlns="http://www.w3.org/2000/svg">
<path fill-rule="evenodd" clip-rule="evenodd" d="M5.61742 0.42644C3.05897 0.824155 1.06558 2.7071 0.502079 5.25829C0.36595 5.8747 0.368165 7.05485 0.50664 7.70089C0.64681 8.35463 0.78029 8.7324 1.09781 9.37379C1.56336 10.3143 2.13712 11.0002 3.63941 12.4118C5.17441 13.8542 6.85119 15.3174 9.43648 17.4706C10.2497 18.1479 10.9719 18.7317 11.0415 18.768C11.2182 18.8603 11.6285 18.8902 11.8256 18.8251C12.003 18.7665 12.1828 18.6262 13.7161 17.3494C16.986 14.6266 19.7027 12.1882 20.7057 11.0757C21.3068 10.4089 21.6225 9.95869 21.9292 9.33034C22.2162 8.74243 22.3628 8.31882 22.4995 7.68199C22.6256 7.09439 22.6367 5.90763 22.5213 5.35449C22.1183 3.42336 20.928 1.85679 19.2242 1.01508C17.5507 0.18828 15.6441 0.142265 13.9417 0.887638C13.1952 1.21444 12.669 1.58513 11.9256 2.30786L11.5027 2.71892L11.0351 2.26502C10.3251 1.57574 9.75844 1.18437 8.99378 0.855136C7.98036 0.418836 6.70676 0.257108 5.61742 0.42644ZM7.24785 2.38308C7.8908 2.49332 8.43241 2.70923 8.96038 3.06575C9.10372 3.16256 9.61192 3.62632 10.0897 4.09634C10.7445 4.74043 11.0012 4.96529 11.1322 5.00931C11.3741 5.09065 11.7521 5.08018 11.9358 4.98706C12.0194 4.94465 12.4592 4.54411 12.9131 4.09699C13.367 3.64987 13.8686 3.19215 14.0277 3.07987C14.41 2.81004 14.8929 2.59091 15.4055 2.45456C15.7622 2.35974 15.9155 2.34345 16.4532 2.34345C16.9965 2.34345 17.1426 2.35931 17.5174 2.45873C19.5193 2.98997 20.828 4.85788 20.6198 6.88691C20.5356 7.70797 20.2119 8.54234 19.7201 9.20576C19.2826 9.7961 17.9973 11.0519 16.2782 12.5688C14.6234 14.029 11.5732 16.6085 11.5014 16.6085C11.4803 16.6085 10.9684 16.1945 10.3638 15.6885C6.56846 12.5121 3.97535 10.1402 3.29639 9.22423C2.5237 8.18173 2.21074 6.91089 2.42905 5.70211C2.82597 3.50405 5.01048 1.99944 7.24785 2.38308Z" fill="#5680E9"/>
</svg>
