<svg width="34" height="29" viewBox="0 0 34 29" fill="none" xmlns="http://www.w3.org/2000/svg">
<path fill-rule="evenodd" clip-rule="evenodd" d="M8.09452 0.78055C4.22226 1.3825 1.20525 4.23236 0.352381 8.09362C0.146346 9.02656 0.149699 10.8127 0.359283 11.7905C0.571432 12.78 0.773456 13.3517 1.25403 14.3225C1.95865 15.746 2.82703 16.7841 5.10077 18.9206C7.42402 21.1037 9.96184 23.3183 13.8747 26.5771C15.1055 27.6021 16.1986 28.4858 16.3039 28.5408C16.5714 28.6805 17.1923 28.7257 17.4907 28.6272C17.7591 28.5385 18.0313 28.3261 20.352 26.3936C25.3011 22.2727 29.4128 18.5821 30.9309 16.8983C31.8407 15.8891 32.3184 15.2077 32.7826 14.2567C33.217 13.3669 33.4389 12.7258 33.6457 11.7619C33.8366 10.8726 33.8534 9.07641 33.6787 8.23922C33.0688 5.31643 31.2673 2.9454 28.6886 1.67147C26.1557 0.420092 23.2701 0.350447 20.6934 1.47858C19.5636 1.9732 18.7672 2.53424 17.642 3.62811L17.0019 4.25025L16.2943 3.56326C15.2197 2.52003 14.362 1.92769 13.2047 1.42939C11.6709 0.769041 9.74325 0.524263 8.09452 0.78055ZM10.5622 3.74195C11.5353 3.90879 12.355 4.23558 13.1541 4.77518C13.3711 4.92171 14.1403 5.62362 14.8634 6.335C15.8545 7.30983 16.243 7.65016 16.4412 7.71678C16.8073 7.8399 17.3795 7.82405 17.6574 7.68311C17.784 7.61893 18.4496 7.0127 19.1366 6.33598C19.8236 5.65926 20.5827 4.96649 20.8236 4.79655C21.4021 4.38815 22.1331 4.0565 22.9089 3.85013C23.4487 3.70663 23.6808 3.68197 24.4946 3.68197C25.3169 3.68197 25.5381 3.70597 26.1052 3.85644C29.1351 4.66049 31.1159 7.48759 30.8008 10.5586C30.6734 11.8013 30.1834 13.0641 29.4391 14.0682C28.7769 14.9617 26.8317 16.8623 24.2298 19.1582C21.7252 21.3682 17.1087 25.2724 17 25.2724C16.9681 25.2724 16.1933 24.6457 15.2782 23.8798C9.53393 19.0723 5.60922 15.4825 4.58161 14.0961C3.41213 12.5183 2.93846 10.5949 3.26888 8.76534C3.86963 5.43855 7.17591 3.16131 10.5622 3.74195Z" fill="white"/>
</svg>
