<svg width="20" height="16" viewBox="0 0 20 16" fill="none" xmlns="http://www.w3.org/2000/svg">
<mask id="path-1-outside-1_516_2743" maskUnits="userSpaceOnUse" x="0.000976562" y="-0.599976" width="20" height="17" fill="black">
<rect fill="white" x="0.000976562" y="-0.599976" width="20" height="17"/>
<path fill-rule="evenodd" clip-rule="evenodd" d="M5.23021 0.453894C3.15579 0.776366 1.53953 2.30308 1.08264 4.37161C0.97226 4.8714 0.974056 5.82828 1.08633 6.3521C1.19998 6.88215 1.30821 7.18845 1.56566 7.7085C1.94313 8.47112 2.40834 9.02721 3.62642 10.1718C4.87101 11.3413 6.23056 12.5277 8.32675 14.2735C8.98608 14.8226 9.57169 15.296 9.62811 15.3255C9.77142 15.4003 10.104 15.4245 10.2639 15.3717C10.4077 15.3242 10.5535 15.2104 11.7967 14.1752C14.448 11.9675 16.6507 9.99043 17.464 9.0884C17.9514 8.54774 18.2073 8.18275 18.456 7.67327C18.6887 7.19659 18.8075 6.85312 18.9184 6.33677C19.0206 5.86034 19.0296 4.8981 18.936 4.44961C18.6093 2.88383 17.6442 1.61364 16.2628 0.931172C14.9058 0.260792 13.36 0.223482 11.9796 0.827839C11.3744 1.09281 10.9477 1.39337 10.3449 1.97937L10.002 2.31266L9.62294 1.94463C9.04725 1.38576 8.58779 1.06843 7.9678 0.801486C7.14611 0.447729 6.11346 0.316598 5.23021 0.453894ZM6.55218 2.04036C7.07349 2.12974 7.51263 2.3048 7.94071 2.59388C8.05694 2.67237 8.46899 3.04839 8.8564 3.42949C9.38732 3.95172 9.59547 4.13404 9.70165 4.16973C9.89778 4.23569 10.2043 4.2272 10.3532 4.1517C10.421 4.11731 10.7776 3.79255 11.1456 3.43002C11.5137 3.06749 11.9203 2.69636 12.0493 2.60533C12.3593 2.38654 12.7509 2.20887 13.1665 2.09831C13.4557 2.02144 13.58 2.00823 14.0159 2.00823C14.4565 2.00823 14.575 2.02109 14.8788 2.10169C16.502 2.53243 17.5631 4.04695 17.3943 5.69211C17.326 6.35784 17.0635 7.03435 16.6648 7.57226C16.3101 8.05091 15.268 9.06913 13.8741 10.2991C12.5324 11.483 10.0592 13.5745 10.001 13.5745C9.98393 13.5745 9.56884 13.2388 9.0786 12.8285C6.00132 10.253 3.8988 8.32995 3.34829 7.58724C2.72179 6.74197 2.46804 5.71156 2.64504 4.73146C2.96687 2.94925 4.7381 1.7293 6.55218 2.04036Z"/>
</mask>
<path fill-rule="evenodd" clip-rule="evenodd" d="M5.23021 0.453894C3.15579 0.776366 1.53953 2.30308 1.08264 4.37161C0.97226 4.8714 0.974056 5.82828 1.08633 6.3521C1.19998 6.88215 1.30821 7.18845 1.56566 7.7085C1.94313 8.47112 2.40834 9.02721 3.62642 10.1718C4.87101 11.3413 6.23056 12.5277 8.32675 14.2735C8.98608 14.8226 9.57169 15.296 9.62811 15.3255C9.77142 15.4003 10.104 15.4245 10.2639 15.3717C10.4077 15.3242 10.5535 15.2104 11.7967 14.1752C14.448 11.9675 16.6507 9.99043 17.464 9.0884C17.9514 8.54774 18.2073 8.18275 18.456 7.67327C18.6887 7.19659 18.8075 6.85312 18.9184 6.33677C19.0206 5.86034 19.0296 4.8981 18.936 4.44961C18.6093 2.88383 17.6442 1.61364 16.2628 0.931172C14.9058 0.260792 13.36 0.223482 11.9796 0.827839C11.3744 1.09281 10.9477 1.39337 10.3449 1.97937L10.002 2.31266L9.62294 1.94463C9.04725 1.38576 8.58779 1.06843 7.9678 0.801486C7.14611 0.447729 6.11346 0.316598 5.23021 0.453894ZM6.55218 2.04036C7.07349 2.12974 7.51263 2.3048 7.94071 2.59388C8.05694 2.67237 8.46899 3.04839 8.8564 3.42949C9.38732 3.95172 9.59547 4.13404 9.70165 4.16973C9.89778 4.23569 10.2043 4.2272 10.3532 4.1517C10.421 4.11731 10.7776 3.79255 11.1456 3.43002C11.5137 3.06749 11.9203 2.69636 12.0493 2.60533C12.3593 2.38654 12.7509 2.20887 13.1665 2.09831C13.4557 2.02144 13.58 2.00823 14.0159 2.00823C14.4565 2.00823 14.575 2.02109 14.8788 2.10169C16.502 2.53243 17.5631 4.04695 17.3943 5.69211C17.326 6.35784 17.0635 7.03435 16.6648 7.57226C16.3101 8.05091 15.268 9.06913 13.8741 10.2991C12.5324 11.483 10.0592 13.5745 10.001 13.5745C9.98393 13.5745 9.56884 13.2388 9.0786 12.8285C6.00132 10.253 3.8988 8.32995 3.34829 7.58724C2.72179 6.74197 2.46804 5.71156 2.64504 4.73146C2.96687 2.94925 4.7381 1.7293 6.55218 2.04036Z" fill="black"/>
<path fill-rule="evenodd" clip-rule="evenodd" d="M5.23021 0.453894C3.15579 0.776366 1.53953 2.30308 1.08264 4.37161C0.97226 4.8714 0.974056 5.82828 1.08633 6.3521C1.19998 6.88215 1.30821 7.18845 1.56566 7.7085C1.94313 8.47112 2.40834 9.02721 3.62642 10.1718C4.87101 11.3413 6.23056 12.5277 8.32675 14.2735C8.98608 14.8226 9.57169 15.296 9.62811 15.3255C9.77142 15.4003 10.104 15.4245 10.2639 15.3717C10.4077 15.3242 10.5535 15.2104 11.7967 14.1752C14.448 11.9675 16.6507 9.99043 17.464 9.0884C17.9514 8.54774 18.2073 8.18275 18.456 7.67327C18.6887 7.19659 18.8075 6.85312 18.9184 6.33677C19.0206 5.86034 19.0296 4.8981 18.936 4.44961C18.6093 2.88383 17.6442 1.61364 16.2628 0.931172C14.9058 0.260792 13.36 0.223482 11.9796 0.827839C11.3744 1.09281 10.9477 1.39337 10.3449 1.97937L10.002 2.31266L9.62294 1.94463C9.04725 1.38576 8.58779 1.06843 7.9678 0.801486C7.14611 0.447729 6.11346 0.316598 5.23021 0.453894ZM6.55218 2.04036C7.07349 2.12974 7.51263 2.3048 7.94071 2.59388C8.05694 2.67237 8.46899 3.04839 8.8564 3.42949C9.38732 3.95172 9.59547 4.13404 9.70165 4.16973C9.89778 4.23569 10.2043 4.2272 10.3532 4.1517C10.421 4.11731 10.7776 3.79255 11.1456 3.43002C11.5137 3.06749 11.9203 2.69636 12.0493 2.60533C12.3593 2.38654 12.7509 2.20887 13.1665 2.09831C13.4557 2.02144 13.58 2.00823 14.0159 2.00823C14.4565 2.00823 14.575 2.02109 14.8788 2.10169C16.502 2.53243 17.5631 4.04695 17.3943 5.69211C17.326 6.35784 17.0635 7.03435 16.6648 7.57226C16.3101 8.05091 15.268 9.06913 13.8741 10.2991C12.5324 11.483 10.0592 13.5745 10.001 13.5745C9.98393 13.5745 9.56884 13.2388 9.0786 12.8285C6.00132 10.253 3.8988 8.32995 3.34829 7.58724C2.72179 6.74197 2.46804 5.71156 2.64504 4.73146C2.96687 2.94925 4.7381 1.7293 6.55218 2.04036Z" stroke="black" stroke-width="0.5" mask="url(#path-1-outside-1_516_2743)"/>
</svg>
