<svg width="13" height="15" viewBox="0 0 13 15" fill="none" xmlns="http://www.w3.org/2000/svg">
<path fill-rule="evenodd" clip-rule="evenodd" d="M6.50008 0C10 0 13 2.75 13 6.5C13 11.75 6.49984 15 6.49984 15C6.49984 15 0 11.75 0 6.5C0 2.75 3 0 6.50008 0ZM1.5 6.5C1.5 3.5 4 1.5 6.49988 1.5C8.99976 1.5 11.5 3.59677 11.5 6.5C11.5 10.5 6.5 13.25 6.5 13.25C6.5 13.25 1.5 10.5 1.5 6.5Z" fill="#828282"/>
<path fill-rule="evenodd" clip-rule="evenodd" d="M6.5 3C4.5 3 3 4.75 3 6.5C3 8.25 4.5 10 6.49988 10C8.49976 10 10 8.25 10 6.5C10 4.75 8.5 3 6.5 3ZM4.5 6.5C4.5 5.25 5.5 4.5 6.5 4.5C7.5 4.5 8.5 5.25 8.5 6.5C8.5 7.75 7.5 8.5 6.49988 8.5C5.5 8.5 4.5 7.75 4.5 6.5Z" fill="#828282"/>
</svg>
