<svg width="38" height="38" viewBox="0 0 38 38" fill="none" xmlns="http://www.w3.org/2000/svg">
<g filter="url(#filter0_f_123_626)">
<path fill-rule="evenodd" clip-rule="evenodd" d="M18.5028 4.01542C17.4147 4.29312 16.8759 4.68923 15.3381 6.34138C14.8796 6.83404 14.4141 7.2764 14.2572 7.36861L13.9817 7.5305L12.9835 7.50145C11.1873 7.44909 10.3309 7.47879 9.83004 7.61069C8.60035 7.93453 7.90709 8.6037 7.57193 9.79043C7.47599 10.1302 7.46595 10.3731 7.48051 12.0086C7.49055 13.1374 7.47359 13.9317 7.43642 14.0695C7.35369 14.3768 7.10585 14.6675 6.34859 15.3457C4.50907 16.9932 4 17.7866 4 19.0062C4 20.2233 4.40461 20.861 6.3049 22.6389C6.8105 23.112 7.27084 23.5964 7.36179 23.751L7.52291 24.025L7.49414 24.9935C7.44094 26.7867 7.47135 27.6774 7.60288 28.1754C7.92758 29.4054 8.59653 30.0978 9.78348 30.4329C10.1233 30.5288 10.3664 30.5389 12.0023 30.5243C13.1328 30.5143 13.9258 30.5312 14.0641 30.5684C14.3733 30.6517 14.5934 30.8399 15.3363 31.6561C16.5894 33.033 17.2233 33.5552 17.9983 33.8491C18.313 33.9685 18.4951 33.9967 18.9725 33.9999C20.2036 34.0083 20.8841 33.5813 22.6389 31.6996C23.1142 31.1898 23.5921 30.7347 23.748 30.643L24.0221 30.4819L24.9909 30.5097C26.8557 30.563 27.8083 30.5389 28.2203 30.4275C29.361 30.1193 30.1034 29.3777 30.4327 28.2173C30.5276 27.8826 30.5378 27.6349 30.5233 26.0038C30.5133 24.8736 30.5302 24.0808 30.5674 23.9426C30.6507 23.6335 30.839 23.4135 31.6555 22.6707C33.0328 21.418 33.555 20.7843 33.849 20.0096C33.9685 19.6949 33.9966 19.5129 33.9999 19.0356C34.0083 17.8029 33.5961 17.1468 31.6989 15.373C31.1925 14.8995 30.7331 14.4163 30.642 14.2614L30.4809 13.9874L30.5087 13.0189C30.562 11.1578 30.5378 10.2023 30.4269 9.79043C30.1175 8.64174 29.3877 7.91064 28.2203 7.57993C27.8799 7.48349 27.6402 7.47357 26.0015 7.48812C24.871 7.49816 24.078 7.4812 23.9397 7.44398C23.6301 7.36063 23.4097 7.17203 22.6687 6.35628C21.0237 4.54559 20.2853 4.0568 19.1193 4.00679C18.8448 3.99505 18.5674 3.99892 18.5028 4.01542ZM19.3927 6.67144C19.5204 6.76395 19.8744 7.11298 20.1795 7.44709C21.6478 9.05557 22.1025 9.44915 22.8196 9.73255C23.5428 10.0184 24.5262 10.0877 26.1653 9.9684C27.0657 9.90284 27.6564 9.96359 27.8324 10.1398C27.9535 10.2611 27.9561 10.3077 27.9571 12.331C27.958 14.1755 27.9697 14.4331 28.0655 14.7212C28.3626 15.614 28.8725 16.2687 30.2661 17.5458C31.178 18.3816 31.4497 18.7028 31.4497 18.9448C31.4497 19.1984 31.1587 19.5825 30.4467 20.2682C28.8111 21.8434 28.5383 22.1653 28.2762 22.8279C27.9929 23.5443 27.9259 24.4992 28.0409 26.1803C28.1034 27.0929 28.045 27.6604 27.8709 27.8342C27.7495 27.9552 27.7029 27.9578 25.679 27.9588C23.834 27.9597 23.5763 27.9714 23.2882 28.0672C22.3993 28.3628 21.7501 28.8677 20.4764 30.254C19.4022 31.4232 19.2039 31.5725 18.8452 31.4826C18.6807 31.4413 18.0553 30.8326 16.9825 29.6697C16.2319 28.8561 15.7241 28.4794 15.0212 28.215L14.5101 28.0228L13.3358 28.0204C12.6899 28.019 11.7784 28.0289 11.3101 28.0423C10.0892 28.0772 9.97565 28.0012 9.94923 27.1319C9.94142 26.876 9.95628 26.0853 9.98211 25.3751C10.0687 23.001 9.92034 22.6704 7.84185 20.6025C7.01871 19.7836 6.54775 19.2714 6.52227 19.1676C6.4319 18.7995 6.46285 18.7622 8.41087 16.893C9.44492 15.9008 9.74819 15.4124 9.93555 14.4372C10.0297 13.9476 10.0399 12.9218 9.9615 11.8449C9.89592 10.9447 9.95669 10.3542 10.133 10.1783C10.2543 10.0572 10.3009 10.0546 12.3248 10.0536C14.6187 10.0525 14.6338 10.0504 15.4202 9.63734C15.9565 9.35564 16.4314 8.93436 17.4461 7.84032C18.7447 6.44017 18.9243 6.33228 19.3927 6.67144ZM14.1771 12.9731C13.8027 13.1123 13.237 13.6906 13.1047 14.0695C12.7056 15.2124 13.4468 16.4208 14.6535 16.5948C15.1833 16.6712 15.9039 16.3903 16.2611 15.9681C16.9235 15.1849 16.8746 14.078 16.1464 13.3705C15.6611 12.8989 14.8285 12.7309 14.1771 12.9731ZM18.0624 18.1551L13.9999 22.2171C13.5055 22.7114 13.5056 23.513 14 24.0073V24.0073V24.0073C14.4945 24.5016 15.2961 24.5016 15.7906 24.0072L19.8677 19.9309L24.5385 15.2609C25.0247 14.7747 25.025 13.9865 24.5391 13.5V13.5V13.5C24.0391 12.9994 23.233 13.0122 22.7308 13.5106C21.5136 14.7188 19.3455 16.8723 18.0624 18.1551ZM23.1446 21.2199C22.2537 21.4427 21.6673 22.1759 21.6673 23.0671C21.6673 23.5858 21.8623 24.038 22.247 24.4119C22.6291 24.7831 23.0578 24.9352 23.6292 24.9023C24.1343 24.8732 24.4716 24.7303 24.8233 24.3963C25.3478 23.8982 25.5345 23.0655 25.2754 22.3791C24.9668 21.5614 23.963 21.0153 23.1446 21.2199Z" fill="black" fill-opacity="0.5"/>
</g>
<defs>
<filter id="filter0_f_123_626" x="0" y="0" width="38" height="38" filterUnits="userSpaceOnUse" color-interpolation-filters="sRGB">
<feFlood flood-opacity="0" result="BackgroundImageFix"/>
<feBlend mode="normal" in="SourceGraphic" in2="BackgroundImageFix" result="shape"/>
<feGaussianBlur stdDeviation="2" result="effect1_foregroundBlur_123_626"/>
</filter>
</defs>
</svg>
