<svg width="16" height="16" viewBox="0 0 16 16" fill="none" xmlns="http://www.w3.org/2000/svg">
<path fill-rule="evenodd" clip-rule="evenodd" d="M10.1657 2.24844L10.1071 2.58041C10.0717 2.78127 10.1956 2.97592 10.3926 3.02889V3.02889C10.8122 3.14175 11.0782 3.24174 11.4017 3.40831C12.6425 4.04723 13.5314 5.22827 13.7518 6.53069C13.8092 6.87023 13.8191 7.13677 13.7893 7.54188V7.54188C13.7752 7.73266 13.9079 7.9031 14.0963 7.93632L14.496 8.0068L15.0861 8.11084C15.1642 8.12461 15.2387 8.07244 15.2524 7.99433V7.99433C15.3375 7.51097 15.3058 6.63715 15.1837 6.09844C14.6857 3.90208 12.92 2.17895 10.6132 1.6381V1.6381C10.436 1.59655 10.2602 1.71245 10.2286 1.89174L10.1657 2.24844ZM3.77051 0.547865C3.38097 0.573574 3.17157 0.657327 2.62164 1.00736C2.05567 1.3676 1.79153 1.5826 1.54979 1.87975C0.964603 2.59907 0.663931 3.6603 0.707317 4.8532C0.822157 8.01135 3.17141 11.8776 6.33696 14.118C7.0135 14.5969 7.5861 14.924 8.25181 15.212C8.91364 15.4983 9.2028 15.5864 9.86138 15.7025C10.5218 15.819 10.87 15.8305 11.4213 15.754C12.0608 15.6652 12.4185 15.5123 13.2204 14.9845C13.7776 14.6178 13.8617 14.552 13.9957 14.379L14.0015 14.3715C14.0965 14.2488 14.1617 14.1057 14.1918 13.9535L14.2316 13.7528C14.3073 13.3702 14.3133 13.3026 14.284 13.1631C14.2155 12.8373 14.1088 12.6802 12.8845 11.1034C11.7385 9.62727 11.679 9.55617 11.4753 9.41812C11.0177 9.10784 10.4388 9.01214 9.87604 9.15365C9.66261 9.2073 9.56752 9.2582 8.99591 9.62456L8.50407 9.93979C8.40823 10.0012 8.2928 10.0243 8.1807 10.0046V10.0046C7.70976 9.92153 6.99608 9.39444 6.62842 8.85813C6.33661 8.43249 6.04996 7.7272 6.02297 7.36858C6.01015 7.19831 6.05444 6.94832 6.10947 6.88038C6.1331 6.85119 6.44279 6.63472 6.79765 6.39935C7.47964 5.94698 7.59807 5.83963 7.7598 5.52726C7.86458 5.32486 7.93162 4.94482 7.90215 4.72041C7.87083 4.48207 7.78747 4.24927 7.66839 4.06787C7.61222 3.98227 7.02801 3.25771 6.37018 2.45775C5.09875 0.911636 5.05915 0.870595 4.68096 0.706902C4.47379 0.617202 3.99275 0.533188 3.77051 0.547865ZM5.18933 3.39365C5.81177 4.22167 6.32207 4.91917 6.32335 4.94367C6.3263 4.99964 6.25353 5.04951 5.61793 5.42714C5.07226 5.75134 4.94233 5.86233 4.74809 6.17013C4.65083 6.3243 4.63535 6.37427 4.56676 6.75604C4.48279 7.2231 4.48977 7.42837 4.60567 7.90037C4.81565 8.75565 5.41912 9.71673 6.15022 10.3602C6.87628 10.9993 7.83205 11.3968 8.57079 11.3669C8.9859 11.3501 9.12832 11.291 9.82897 10.8445C10.195 10.6113 10.493 10.4401 10.5235 10.4454C10.5554 10.4511 11.0212 11.0441 11.6821 11.9207C12.7295 13.3097 12.7858 13.3906 12.7573 13.4645C12.7352 13.5219 12.5823 13.6358 12.1807 13.8938C11.685 14.2125 11.6096 14.2513 11.3704 14.3116C11.0374 14.3955 10.8334 14.4085 10.4002 14.373C8.72715 14.2363 6.65505 12.9333 4.8648 10.8924C3.88585 9.7764 3.02119 8.22447 2.56544 6.76537C2.00256 4.96322 2.10226 3.44327 2.83597 2.64174C3.05213 2.40562 3.87286 1.85556 3.98068 1.87457C4.04373 1.88569 4.26207 2.16012 5.18933 3.39365ZM9.95806 4.34556C9.85786 4.33398 9.79417 4.40221 9.77104 4.50039C9.72902 4.67873 9.7275 4.75244 9.67917 5.04672L9.59697 5.54718C9.58196 5.63857 9.638 5.72664 9.72714 5.75176V5.75176C10.348 5.92668 10.8113 6.50421 10.8045 7.09482V7.09482C10.8031 7.22392 10.8998 7.34892 11.0251 7.3799C11.1352 7.40711 11.2966 7.44265 11.531 7.48399C11.7138 7.51622 11.8767 7.54194 12.003 7.56031C12.1721 7.58492 12.2905 7.49877 12.3019 7.32822V7.32822C12.3653 6.37503 11.8999 5.44341 11.0678 4.85748C10.8658 4.7153 10.6165 4.58263 10.3949 4.49627C10.2653 4.44574 10.1322 4.39627 10 4.35288V4.35288C9.99243 4.35039 9.97702 4.34775 9.95806 4.34556Z" fill="black"/>
</svg>
