<svg width="16" height="15" viewBox="0 0 16 15" fill="none" xmlns="http://www.w3.org/2000/svg">
<path fill-rule="evenodd" clip-rule="evenodd" d="M7.69264 0.0294324C7.4411 0.0943269 7.18997 0.257024 7.04002 0.452209C6.99768 0.507303 6.51759 1.3272 5.97314 2.27418C5.42868 3.22119 4.96814 4.01056 4.9497 4.02836C4.92642 4.05085 4.31539 4.17825 2.94908 4.44555C1.86718 4.65718 0.922054 4.84854 0.8488 4.87079C0.653423 4.93009 0.508268 5.01881 0.346782 5.17766C0.114112 5.4065 0 5.68048 0 6.01017C0 6.22549 0.0336866 6.36099 0.135217 6.55401C0.217241 6.70994 0.401225 6.91072 2.62238 9.2682L3.05789 9.73044L2.82442 11.7032C2.696 12.7883 2.59097 13.7392 2.59101 13.8163C2.59119 14.1214 2.70104 14.3863 2.92441 14.6202C3.20152 14.9105 3.57027 15.0409 3.96644 14.9888C4.1697 14.962 4.04893 15.013 6.31328 13.9993L7.99723 13.2454L8.08571 13.2829C8.13436 13.3035 8.99254 13.6867 9.99277 14.1344C10.993 14.5822 11.8551 14.9588 11.9086 14.9713C11.9621 14.9837 12.0935 14.9937 12.2006 14.9935C12.5567 14.9925 12.8324 14.875 13.0756 14.6202C13.299 14.3862 13.4089 14.1212 13.4089 13.8163C13.4089 13.7392 13.3038 12.7884 13.1754 11.7034L12.9418 9.73074L13.3775 9.26836C15.5988 6.91071 15.7828 6.70994 15.8648 6.55401C15.9663 6.36099 16 6.22549 16 6.01017C16 5.68123 15.8864 5.40832 15.6532 5.17728C15.4933 5.01881 15.3496 4.93103 15.1512 4.87071C15.0779 4.84842 14.1328 4.65686 13.0509 4.445C11.7007 4.18062 11.0735 4.04983 11.0509 4.02792C11.0328 4.01036 10.5685 3.21471 10.0192 2.25982C9.46987 1.30492 8.98133 0.47702 8.93357 0.420062C8.77401 0.229828 8.55224 0.0932848 8.29793 0.0287109C8.146 -0.00986904 7.84351 -0.0095083 7.69264 0.0294324Z" fill="#5680E9"/>
</svg>
