<svg width="28" height="28" viewBox="0 0 28 28" fill="none" xmlns="http://www.w3.org/2000/svg">
<mask id="path-1-outside-1_112_1143" maskUnits="userSpaceOnUse" x="0" y="0" width="28" height="28" fill="black">
<rect fill="white" width="28" height="28"/>
<path fill-rule="evenodd" clip-rule="evenodd" d="M16.1414 1.01465C18.0168 1.22895 19.1725 1.54849 20.5234 2.2263C21.6494 2.79127 22.4854 3.38183 23.4013 4.25935C27.0916 7.79483 28.0546 13.3118 25.7737 17.8504C23.2808 22.8107 17.7456 25.3375 12.3929 23.9587C10.9216 23.5797 9.65114 22.9549 8.13304 21.8637C8.06927 21.8179 7.45904 22.3915 5.53864 24.3027C2.76789 27.0601 2.77391 27.0554 2.1352 26.9798C1.33176 26.8847 0.833861 26.1194 1.05098 25.313C1.12249 25.0472 1.33091 24.8214 3.6595 22.4851C5.58696 20.5514 6.17601 19.9265 6.13025 19.8637C4.94277 18.2315 4.24777 16.7159 3.87626 14.9485C3.68135 14.0212 3.60778 12.2776 3.72376 11.3368C3.92762 9.68398 4.48102 8.04276 5.27886 6.72484C6.5062 4.69762 8.16809 3.17914 10.2691 2.16526C11.417 1.61129 12.3659 1.31352 13.5722 1.12876C14.1619 1.03842 15.7371 0.968442 16.1414 1.01465ZM13.5085 3.76946C11.121 4.27588 9.13827 5.60426 7.80048 7.59348C5.7324 10.6687 5.72698 14.6154 7.78667 17.7254C8.33325 18.5507 9.44685 19.6631 10.2736 20.2096C12.0015 21.3518 14.0117 21.8748 16.0381 21.7093C19.2374 21.4482 21.999 19.6 23.4226 16.7674C25.5313 12.5712 24.1406 7.51214 20.1822 4.97983C19.1865 4.34288 17.7681 3.83263 16.5014 3.65583C15.8401 3.56349 14.1828 3.62641 13.5085 3.76946Z"/>
</mask>
<path fill-rule="evenodd" clip-rule="evenodd" d="M16.1414 1.01465C18.0168 1.22895 19.1725 1.54849 20.5234 2.2263C21.6494 2.79127 22.4854 3.38183 23.4013 4.25935C27.0916 7.79483 28.0546 13.3118 25.7737 17.8504C23.2808 22.8107 17.7456 25.3375 12.3929 23.9587C10.9216 23.5797 9.65114 22.9549 8.13304 21.8637C8.06927 21.8179 7.45904 22.3915 5.53864 24.3027C2.76789 27.0601 2.77391 27.0554 2.1352 26.9798C1.33176 26.8847 0.833861 26.1194 1.05098 25.313C1.12249 25.0472 1.33091 24.8214 3.6595 22.4851C5.58696 20.5514 6.17601 19.9265 6.13025 19.8637C4.94277 18.2315 4.24777 16.7159 3.87626 14.9485C3.68135 14.0212 3.60778 12.2776 3.72376 11.3368C3.92762 9.68398 4.48102 8.04276 5.27886 6.72484C6.5062 4.69762 8.16809 3.17914 10.2691 2.16526C11.417 1.61129 12.3659 1.31352 13.5722 1.12876C14.1619 1.03842 15.7371 0.968442 16.1414 1.01465ZM13.5085 3.76946C11.121 4.27588 9.13827 5.60426 7.80048 7.59348C5.7324 10.6687 5.72698 14.6154 7.78667 17.7254C8.33325 18.5507 9.44685 19.6631 10.2736 20.2096C12.0015 21.3518 14.0117 21.8748 16.0381 21.7093C19.2374 21.4482 21.999 19.6 23.4226 16.7674C25.5313 12.5712 24.1406 7.51214 20.1822 4.97983C19.1865 4.34288 17.7681 3.83263 16.5014 3.65583C15.8401 3.56349 14.1828 3.62641 13.5085 3.76946Z" fill="#5680E9"/>
<path fill-rule="evenodd" clip-rule="evenodd" d="M16.1414 1.01465C18.0168 1.22895 19.1725 1.54849 20.5234 2.2263C21.6494 2.79127 22.4854 3.38183 23.4013 4.25935C27.0916 7.79483 28.0546 13.3118 25.7737 17.8504C23.2808 22.8107 17.7456 25.3375 12.3929 23.9587C10.9216 23.5797 9.65114 22.9549 8.13304 21.8637C8.06927 21.8179 7.45904 22.3915 5.53864 24.3027C2.76789 27.0601 2.77391 27.0554 2.1352 26.9798C1.33176 26.8847 0.833861 26.1194 1.05098 25.313C1.12249 25.0472 1.33091 24.8214 3.6595 22.4851C5.58696 20.5514 6.17601 19.9265 6.13025 19.8637C4.94277 18.2315 4.24777 16.7159 3.87626 14.9485C3.68135 14.0212 3.60778 12.2776 3.72376 11.3368C3.92762 9.68398 4.48102 8.04276 5.27886 6.72484C6.5062 4.69762 8.16809 3.17914 10.2691 2.16526C11.417 1.61129 12.3659 1.31352 13.5722 1.12876C14.1619 1.03842 15.7371 0.968442 16.1414 1.01465ZM13.5085 3.76946C11.121 4.27588 9.13827 5.60426 7.80048 7.59348C5.7324 10.6687 5.72698 14.6154 7.78667 17.7254C8.33325 18.5507 9.44685 19.6631 10.2736 20.2096C12.0015 21.3518 14.0117 21.8748 16.0381 21.7093C19.2374 21.4482 21.999 19.6 23.4226 16.7674C25.5313 12.5712 24.1406 7.51214 20.1822 4.97983C19.1865 4.34288 17.7681 3.83263 16.5014 3.65583C15.8401 3.56349 14.1828 3.62641 13.5085 3.76946Z" stroke="#5680E9" mask="url(#path-1-outside-1_112_1143)"/>
</svg>
