<svg width="16" height="16" viewBox="0 0 16 16" fill="none" xmlns="http://www.w3.org/2000/svg">
<path fill-rule="evenodd" clip-rule="evenodd" d="M6.94858 0.226975C3.65691 0.531844 0.92125 2.95301 0.252207 6.15348C0.0513475 7.11432 0.0513475 8.28227 0.252207 9.2431C0.670646 11.2448 1.94698 13.0343 3.72381 14.1106C6.57108 15.8353 10.2392 15.4766 12.6908 13.2337C13.9189 12.1101 14.6528 10.8134 15.0191 9.1199C15.1007 8.74293 15.1016 8.72771 15.1016 7.69829C15.1016 6.66887 15.1007 6.65366 15.0191 6.27668C14.769 5.12004 14.3799 4.22079 13.7509 3.34552C12.1997 1.18672 9.57556 -0.0163115 6.94858 0.226975ZM8.03288 1.55385C8.25996 1.66456 8.5438 1.93323 8.7786 2.2597C8.98852 2.55159 9.32284 3.2065 9.46009 3.59467C9.50854 3.7317 9.55743 3.86689 9.5687 3.89511C9.58816 3.94365 9.48408 3.94641 7.62872 3.94641C6.55042 3.94641 5.66818 3.93976 5.66818 3.93161C5.66818 3.87172 5.94001 3.19621 6.07176 2.92862C6.43021 2.2007 6.86148 1.69912 7.27909 1.52436C7.51522 1.42555 7.7919 1.43637 8.03288 1.55385ZM4.95057 2.32694C4.7038 2.81888 4.44951 3.4776 4.35656 3.8658L4.33725 3.94641H3.48686C3.01912 3.94641 2.63645 3.93879 2.63645 3.92944C2.63645 3.88462 3.01465 3.46051 3.29015 3.19644C3.60519 2.89447 3.92579 2.638 4.24062 2.43613C4.37984 2.34685 5.09922 1.95724 5.13086 1.95395C5.1348 1.95354 5.05368 2.12138 4.95057 2.32694ZM10.3765 2.08454C11.145 2.46993 11.8552 3.02081 12.372 3.63228C12.4839 3.76474 12.5851 3.88963 12.5968 3.90977C12.6137 3.93873 12.4398 3.94641 11.7675 3.94641H10.9168L10.8344 3.67528C10.7088 3.26195 10.4792 2.68997 10.2896 2.31762C10.1957 2.13334 10.1311 1.98253 10.146 1.98253C10.1609 1.98253 10.2646 2.02844 10.3765 2.08454ZM4.03626 5.31673C3.98321 5.63675 3.92935 6.12701 3.8978 6.57712L3.86236 7.08275H2.61422H1.36609L1.38204 7.00214C1.39082 6.95782 1.40647 6.85558 1.41684 6.77498C1.46631 6.39053 1.65611 5.70153 1.81287 5.33733L1.86906 5.20681H2.96176H4.05448L4.03626 5.31673ZM9.91882 5.28741C9.99023 5.63024 10.1128 6.69343 10.1128 6.97022V7.08275H7.62557H5.13837V6.90606C5.13837 6.6152 5.27903 5.39675 5.33031 5.24345C5.33996 5.21455 5.82466 5.20681 7.6223 5.20681H9.90205L9.91882 5.28741ZM13.4432 5.36802C13.6559 5.9119 13.8498 6.6895 13.8507 7.00214L13.8509 7.08275H12.6178H11.3847L11.3656 6.81162C11.3303 6.31083 11.2867 5.86837 11.2441 5.58073C11.2209 5.42365 11.2018 5.2751 11.2018 5.2506C11.2018 5.21147 11.3334 5.20701 12.2939 5.21378L13.3859 5.22146L13.4432 5.36802ZM3.8978 8.81946C3.92935 9.26957 3.98321 9.75983 4.03626 10.0799L4.05448 10.1898H2.96176H1.86906L1.81287 10.0593C1.65611 9.69506 1.46631 9.00606 1.41684 8.62161C1.40647 8.541 1.39082 8.43876 1.38204 8.39444L1.36609 8.31383H2.61422H3.86236L3.8978 8.81946ZM10.1128 8.42636C10.1128 8.70327 9.99023 9.76643 9.91879 10.1093L9.90196 10.1901L7.61603 10.1826L5.33007 10.1751L5.28047 9.8621C5.21486 9.44805 5.13837 8.70913 5.13837 8.48944V8.31383H7.62557H10.1128V8.42636ZM13.8507 8.39444C13.8498 8.70708 13.6559 9.48469 13.4432 10.0286L13.3859 10.1751L12.2939 10.1828C11.3334 10.1896 11.2018 10.1851 11.2018 10.146C11.2018 10.1215 11.2209 9.97293 11.2441 9.81585C11.2867 9.52821 11.3303 9.08576 11.3656 8.58497L11.3847 8.31383H12.6178H13.8509L13.8507 8.39444ZM4.35656 11.5308C4.44954 11.9191 4.7038 12.5777 4.95072 13.0699L5.13831 13.4439L4.84022 13.2949C4.23835 12.9941 3.78291 12.6725 3.29015 12.2001C3.01465 11.9361 2.63645 11.512 2.63645 11.4671C2.63645 11.4578 3.01912 11.4502 3.48686 11.4502H4.33725L4.35656 11.5308ZM9.5687 11.5015C9.55743 11.5297 9.50854 11.6649 9.46009 11.8019C9.32284 12.1901 8.98852 12.845 8.7786 13.1369C7.98726 14.2372 7.18249 14.2056 6.39986 13.0435C6.19188 12.7347 5.94619 12.2384 5.78898 11.8094C5.72255 11.6281 5.66818 11.4731 5.66818 11.465C5.66818 11.4568 6.55042 11.4502 7.62872 11.4502C9.48408 11.4502 9.58816 11.4529 9.5687 11.5015ZM12.5968 11.4868C12.5851 11.507 12.4839 11.6318 12.372 11.7643C11.8552 12.3758 11.145 12.9267 10.3765 13.312C10.2646 13.3681 10.1609 13.414 10.146 13.414C10.1311 13.414 10.1957 13.2632 10.2896 13.079C10.4792 12.7066 10.7088 12.1346 10.8344 11.7213L10.9168 11.4502H11.7675C12.4398 11.4502 12.6137 11.4579 12.5968 11.4868Z" fill="black"/>
</svg>
