<svg width="20" height="11" viewBox="0 0 20 11" fill="none" xmlns="http://www.w3.org/2000/svg">
<path d="M0.422047 0.405821C0.984776 -0.135274 1.89714 -0.135274 2.45987 0.405821L11.0173 8.63421C11.58 9.17531 11.58 10.0526 11.0173 10.5937C10.4545 11.1348 9.54216 11.1348 8.97944 10.5937L0.422047 2.3653C-0.140682 1.82421 -0.140683 0.946916 0.422047 0.405821Z" fill="#5680E9"/>
<path d="M8.98338 10.5948C8.42149 10.0545 8.42149 9.17853 8.98338 8.63825L17.5438 0.406901C18.1057 -0.133379 19.0167 -0.133379 19.5786 0.406901C20.1405 0.947181 20.1405 1.82315 19.5786 2.36343L11.0181 10.5948C10.4562 11.1351 9.54526 11.1351 8.98338 10.5948Z" fill="#5680E9"/>
</svg>
