<svg width="16" height="9" viewBox="0 0 16 9" fill="none" xmlns="http://www.w3.org/2000/svg">
<path d="M0.337637 0.332036C0.787821 -0.110679 1.51771 -0.110679 1.9679 0.332036L8.81381 7.06437C9.26399 7.50708 9.26399 8.22487 8.81381 8.66758C8.36362 9.11029 7.63373 9.11029 7.18355 8.66758L0.337638 1.93525C-0.112546 1.49253 -0.112546 0.774751 0.337637 0.332036Z" fill="#6F6F6F"/>
<path d="M7.1867 8.66846C6.7372 8.22642 6.73719 7.50971 7.1867 7.06767L14.0351 0.33292C14.4846 -0.109128 15.2134 -0.109128 15.6629 0.33292C16.1124 0.774968 16.1124 1.49167 15.6629 1.93372L8.8145 8.66846C8.365 9.11051 7.63621 9.11051 7.1867 8.66846Z" fill="#6F6F6F"/>
</svg>
