<svg width="30" height="30" viewBox="0 0 30 30" fill="none" xmlns="http://www.w3.org/2000/svg">
<path fill-rule="evenodd" clip-rule="evenodd" d="M14.5028 0.0154173C13.4148 0.293124 12.8759 0.689226 11.3381 2.34138C10.8796 2.83404 10.4141 3.2764 10.2572 3.36861L9.98168 3.5305L8.9835 3.50145C7.18732 3.44909 6.33095 3.47879 5.83004 3.61069C4.60035 3.93453 3.90709 4.6037 3.57194 5.79043C3.47599 6.13018 3.46595 6.37313 3.48051 8.00861C3.49055 9.1374 3.47359 9.93166 3.43642 10.0695C3.35369 10.3768 3.10585 10.6675 2.34859 11.3457C0.509069 12.9932 0 13.7866 0 15.0062C0 16.2233 0.404613 16.861 2.3049 18.6389C2.81051 19.112 3.27084 19.5964 3.36179 19.751L3.52291 20.025L3.49414 20.9935C3.44094 22.7867 3.47135 23.6774 3.60288 24.1754C3.92758 25.4054 4.59653 26.0978 5.78348 26.4329C6.12333 26.5288 6.36635 26.5389 8.0023 26.5243C9.13282 26.5143 9.92584 26.5312 10.0641 26.5684C10.3733 26.6517 10.5934 26.8399 11.3363 27.6561C12.5894 29.033 13.2233 29.5552 13.9983 29.8491C14.313 29.9685 14.4951 29.9967 14.9725 29.9999C16.2036 30.0083 16.8841 29.5813 18.6389 27.6996C19.1142 27.1898 19.5921 26.7347 19.748 26.643L20.0221 26.4819L20.9909 26.5097C22.8557 26.563 23.8083 26.5389 24.2203 26.4275C25.361 26.1193 26.1034 25.3777 26.4327 24.2173C26.5276 23.8826 26.5378 23.6349 26.5233 22.0038C26.5133 20.8736 26.5302 20.0808 26.5675 19.9426C26.6507 19.6335 26.839 19.4135 27.6555 18.6707C29.0328 17.418 29.555 16.7843 29.849 16.0096C29.9685 15.6949 29.9966 15.5129 29.9999 15.0356C30.0083 13.8029 29.5961 13.1468 27.6989 11.373C27.1925 10.8995 26.7331 10.4163 26.642 10.2614L26.4809 9.98742L26.5087 9.01889C26.562 7.15783 26.5378 6.20232 26.4269 5.79043C26.1175 4.64174 25.3877 3.91064 24.2203 3.57993C23.8799 3.48349 23.6402 3.47357 22.0015 3.48812C20.871 3.49816 20.078 3.4812 19.9397 3.44398C19.6301 3.36063 19.4097 3.17203 18.6687 2.35628C17.0237 0.545589 16.2853 0.0568003 15.1193 0.00678855C14.8448 -0.0049513 14.5674 -0.00107715 14.5028 0.0154173ZM15.3927 2.67144C15.5204 2.76395 15.8744 3.11298 16.1795 3.44709C17.6478 5.05557 18.1025 5.44915 18.8196 5.73255C19.5428 6.01836 20.5262 6.08768 22.1653 5.9684C23.0657 5.90284 23.6564 5.96359 23.8324 6.1398C23.9535 6.26108 23.9561 6.30774 23.9571 8.33105C23.958 10.1755 23.9697 10.4331 24.0655 10.7212C24.3626 11.614 24.8726 12.2687 26.2661 13.5458C27.178 14.3816 27.4497 14.7028 27.4497 14.9448C27.4497 15.1984 27.1587 15.5825 26.4467 16.2682C24.8111 17.8434 24.5383 18.1653 24.2762 18.8279C23.9929 19.5443 23.9259 20.4992 24.0409 22.1803C24.1034 23.0929 24.045 23.6604 23.8709 23.8342C23.7495 23.9552 23.7029 23.9578 21.679 23.9588C19.834 23.9597 19.5763 23.9714 19.2882 24.0672C18.3993 24.3628 17.7501 24.8677 16.4764 26.254C15.4022 27.4232 15.2039 27.5725 14.8453 27.4826C14.6807 27.4413 14.0553 26.8326 12.9825 25.6697C12.2319 24.8561 11.7241 24.4794 11.0212 24.215L10.5101 24.0228L9.3358 24.0204C8.68992 24.019 7.77836 24.0289 7.3101 24.0423C6.08921 24.0772 5.97566 24.0012 5.94923 23.1319C5.94142 22.876 5.95628 22.0853 5.98211 21.3751C6.06866 19.001 5.92034 18.6704 3.84185 16.6025C3.01871 15.7836 2.54775 15.2714 2.52227 15.1676C2.4319 14.7995 2.46285 14.7622 4.41087 12.893C5.44492 11.9008 5.74819 11.4124 5.93555 10.4372C6.02967 9.94757 6.03989 8.9218 5.9615 7.8449C5.89592 6.94475 5.95669 6.35417 6.13296 6.17825C6.25426 6.05721 6.30094 6.05457 8.32483 6.05358C10.6187 6.05246 10.6338 6.05041 11.4202 5.63734C11.9565 5.35564 12.4314 4.93436 13.4461 3.84032C14.7447 2.44017 14.9243 2.33228 15.3927 2.67144ZM10.1771 8.9731C9.80266 9.11228 9.23699 9.69064 9.1047 10.0695C8.7056 11.2124 9.44678 12.4208 10.6535 12.5948C11.1833 12.6712 11.9039 12.3903 12.2611 11.9681C12.9235 11.1849 12.8746 10.078 12.1464 9.37049C11.6611 8.8989 10.8285 8.73091 10.1771 8.9731ZM14.0624 14.1551L9.99993 18.2171C9.50554 18.7114 9.50557 19.513 10 20.0073C10.4945 20.5016 11.2961 20.5016 11.7906 20.0072L15.8677 15.9309L20.5385 11.2609C21.0247 10.7747 21.025 9.98653 20.5391 9.5C20.0391 8.99936 19.233 9.01217 18.7308 9.51062C17.5136 10.7188 15.3455 12.8723 14.0624 14.1551ZM19.1446 17.2199C18.2537 17.4427 17.6673 18.1759 17.6673 19.0671C17.6673 19.5858 17.8623 20.038 18.247 20.4119C18.6291 20.7831 19.0578 20.9352 19.6292 20.9023C20.1343 20.8732 20.4716 20.7303 20.8233 20.3963C21.3478 19.8982 21.5345 19.0655 21.2754 18.3791C20.9668 17.5614 19.963 17.0153 19.1446 17.2199Z" fill="black"/>
</svg>
