<svg width="40" height="40" viewBox="0 0 40 40" fill="none" xmlns="http://www.w3.org/2000/svg">
<circle cx="20" cy="20" r="19" stroke="#CCCCCC" stroke-width="2"/>
<mask id="path-2-inside-1_1067_3247" fill="white">
<path fill-rule="evenodd" clip-rule="evenodd" d="M13.6404 11.272C10.8745 11.702 8.71953 13.7376 8.11034 16.4956C7.96318 17.162 7.96557 18.4379 8.11527 19.1363C8.26681 19.843 8.41111 20.2514 8.75438 20.9448C9.25768 21.9617 9.87795 22.7031 11.5021 24.2292C13.1615 25.7886 14.9742 27.3704 17.7692 29.6981C18.6483 30.4303 19.4291 31.0615 19.5043 31.1008C19.6954 31.2006 20.1389 31.2328 20.352 31.1625C20.5437 31.0991 20.7381 30.9474 22.3958 29.5671C25.9308 26.6235 28.8678 23.9874 29.9521 22.7847C30.602 22.0638 30.9432 21.5772 31.2748 20.8979C31.5851 20.2623 31.7435 19.8043 31.8913 19.1159C32.0276 18.4806 32.0397 17.1976 31.9149 16.5996C31.4792 14.5119 30.1925 12.8183 28.3505 11.9084C26.5413 11.0146 24.4801 10.9648 22.6397 11.7706C21.8327 12.1239 21.2638 12.5247 20.4601 13.306L20.0029 13.7504L19.4974 13.2597C18.7298 12.5145 18.1172 12.0914 17.2906 11.7355C16.195 11.2638 14.8181 11.089 13.6404 11.272ZM15.4031 13.3873C16.0981 13.5065 16.6837 13.7399 17.2544 14.1253C17.4094 14.23 17.9588 14.7314 18.4754 15.2395C19.1833 15.9358 19.4608 16.1789 19.6024 16.2265C19.8639 16.3144 20.2726 16.3031 20.4711 16.2024C20.5615 16.1566 21.0369 15.7236 21.5277 15.2402C22.0184 14.7568 22.5606 14.262 22.7326 14.1406C23.1459 13.8489 23.668 13.612 24.2222 13.4646C24.6077 13.3621 24.7735 13.3445 25.3548 13.3445C25.9422 13.3445 26.1001 13.3616 26.5052 13.4691C28.6695 14.0434 30.0843 16.0628 29.8592 18.2563C29.7682 19.144 29.4182 20.046 28.8866 20.7632C28.4136 21.4014 27.0241 22.759 25.1656 24.3989C23.3766 25.9775 20.0791 28.7662 20.0015 28.7662C19.9787 28.7662 19.4253 28.3186 18.7716 27.7715C14.6686 24.3376 11.8652 21.7734 11.1312 20.7831C10.2959 19.6561 9.95754 18.2822 10.1936 16.9754C10.6227 14.5992 12.9843 12.9726 15.4031 13.3873Z"/>
</mask>
<path fill-rule="evenodd" clip-rule="evenodd" d="M13.6404 11.272C10.8745 11.702 8.71953 13.7376 8.11034 16.4956C7.96318 17.162 7.96557 18.4379 8.11527 19.1363C8.26681 19.843 8.41111 20.2514 8.75438 20.9448C9.25768 21.9617 9.87795 22.7031 11.5021 24.2292C13.1615 25.7886 14.9742 27.3704 17.7692 29.6981C18.6483 30.4303 19.4291 31.0615 19.5043 31.1008C19.6954 31.2006 20.1389 31.2328 20.352 31.1625C20.5437 31.0991 20.7381 30.9474 22.3958 29.5671C25.9308 26.6235 28.8678 23.9874 29.9521 22.7847C30.602 22.0638 30.9432 21.5772 31.2748 20.8979C31.5851 20.2623 31.7435 19.8043 31.8913 19.1159C32.0276 18.4806 32.0397 17.1976 31.9149 16.5996C31.4792 14.5119 30.1925 12.8183 28.3505 11.9084C26.5413 11.0146 24.4801 10.9648 22.6397 11.7706C21.8327 12.1239 21.2638 12.5247 20.4601 13.306L20.0029 13.7504L19.4974 13.2597C18.7298 12.5145 18.1172 12.0914 17.2906 11.7355C16.195 11.2638 14.8181 11.089 13.6404 11.272ZM15.4031 13.3873C16.0981 13.5065 16.6837 13.7399 17.2544 14.1253C17.4094 14.23 17.9588 14.7314 18.4754 15.2395C19.1833 15.9358 19.4608 16.1789 19.6024 16.2265C19.8639 16.3144 20.2726 16.3031 20.4711 16.2024C20.5615 16.1566 21.0369 15.7236 21.5277 15.2402C22.0184 14.7568 22.5606 14.262 22.7326 14.1406C23.1459 13.8489 23.668 13.612 24.2222 13.4646C24.6077 13.3621 24.7735 13.3445 25.3548 13.3445C25.9422 13.3445 26.1001 13.3616 26.5052 13.4691C28.6695 14.0434 30.0843 16.0628 29.8592 18.2563C29.7682 19.144 29.4182 20.046 28.8866 20.7632C28.4136 21.4014 27.0241 22.759 25.1656 24.3989C23.3766 25.9775 20.0791 28.7662 20.0015 28.7662C19.9787 28.7662 19.4253 28.3186 18.7716 27.7715C14.6686 24.3376 11.8652 21.7734 11.1312 20.7831C10.2959 19.6561 9.95754 18.2822 10.1936 16.9754C10.6227 14.5992 12.9843 12.9726 15.4031 13.3873Z" fill="#B9B9B9" stroke="#CCCCCC" stroke-width="14" mask="url(#path-2-inside-1_1067_3247)"/>
</svg>
