<svg width="24" height="20" viewBox="0 0 24 20" fill="none" xmlns="http://www.w3.org/2000/svg">
<mask id="path-1-outside-1_939_4843" maskUnits="userSpaceOnUse" x="0.202148" y="0.0791016" width="23" height="20" fill="black">
<rect fill="white" x="0.202148" y="0.0791016" width="23" height="20"/>
<path fill-rule="evenodd" clip-rule="evenodd" d="M6.27723 1.14375C3.78792 1.53071 1.84841 3.36276 1.30014 5.845C1.16769 6.44475 1.16984 7.59301 1.30458 8.22159C1.44096 8.85766 1.57083 9.22522 1.87977 9.84927C2.33274 10.7644 2.89099 11.4317 4.35268 12.8052C5.84619 14.2086 7.47765 15.6323 9.99308 17.7272C10.7843 18.3862 11.487 18.9542 11.5547 18.9896C11.7267 19.0794 12.1258 19.1085 12.3176 19.0451C12.4902 18.9881 12.6652 18.8516 14.157 17.6093C17.3386 14.9601 19.9819 12.5876 20.9578 11.5052C21.5426 10.8564 21.8497 10.4184 22.1482 9.807C22.4274 9.23498 22.57 8.82282 22.703 8.2032C22.8257 7.63148 22.8365 6.4768 22.7242 5.93861C22.3321 4.05967 21.1741 2.53544 19.5163 1.71648C17.888 0.912022 16.0329 0.867251 14.3765 1.59248C13.6502 1.91045 13.1382 2.27112 12.4149 2.97432L12.0034 3.37426L11.5485 2.93263C10.8577 2.26199 10.3063 1.88119 9.56234 1.56086C8.57631 1.13635 7.33713 0.97899 6.27723 1.14375ZM7.8636 3.0475C8.48917 3.15476 9.01614 3.36484 9.52984 3.71172C9.6693 3.80592 10.1638 4.25714 10.6287 4.71446C11.2658 5.34114 11.5155 5.55993 11.643 5.60275C11.8783 5.6819 12.2461 5.67171 12.4248 5.58111C12.5062 5.53984 12.9341 5.15013 13.3757 4.71509C13.8174 4.28006 14.3054 3.83471 14.4602 3.72546C14.8321 3.46292 15.302 3.24971 15.8008 3.11705C16.1478 3.0248 16.297 3.00894 16.8201 3.00894C17.3488 3.00894 17.491 3.02438 17.8556 3.12111C19.8034 3.63799 21.0767 5.45542 20.8742 7.42961C20.7922 8.22848 20.4772 9.04029 19.9988 9.68579C19.5731 10.2602 18.3226 11.482 16.6499 12.9579C15.0398 14.3787 12.0721 16.8885 12.0022 16.8885C11.9817 16.8885 11.4836 16.4857 10.8953 15.9933C7.20257 12.9027 4.67954 10.595 4.01893 9.70375C3.26712 8.68943 2.96262 7.45294 3.17503 6.27683C3.56123 4.13818 5.6867 2.67423 7.8636 3.0475Z"/>
</mask>
<path fill-rule="evenodd" clip-rule="evenodd" d="M6.27723 1.14375C3.78792 1.53071 1.84841 3.36276 1.30014 5.845C1.16769 6.44475 1.16984 7.59301 1.30458 8.22159C1.44096 8.85766 1.57083 9.22522 1.87977 9.84927C2.33274 10.7644 2.89099 11.4317 4.35268 12.8052C5.84619 14.2086 7.47765 15.6323 9.99308 17.7272C10.7843 18.3862 11.487 18.9542 11.5547 18.9896C11.7267 19.0794 12.1258 19.1085 12.3176 19.0451C12.4902 18.9881 12.6652 18.8516 14.157 17.6093C17.3386 14.9601 19.9819 12.5876 20.9578 11.5052C21.5426 10.8564 21.8497 10.4184 22.1482 9.807C22.4274 9.23498 22.57 8.82282 22.703 8.2032C22.8257 7.63148 22.8365 6.4768 22.7242 5.93861C22.3321 4.05967 21.1741 2.53544 19.5163 1.71648C17.888 0.912022 16.0329 0.867251 14.3765 1.59248C13.6502 1.91045 13.1382 2.27112 12.4149 2.97432L12.0034 3.37426L11.5485 2.93263C10.8577 2.26199 10.3063 1.88119 9.56234 1.56086C8.57631 1.13635 7.33713 0.97899 6.27723 1.14375ZM7.8636 3.0475C8.48917 3.15476 9.01614 3.36484 9.52984 3.71172C9.6693 3.80592 10.1638 4.25714 10.6287 4.71446C11.2658 5.34114 11.5155 5.55993 11.643 5.60275C11.8783 5.6819 12.2461 5.67171 12.4248 5.58111C12.5062 5.53984 12.9341 5.15013 13.3757 4.71509C13.8174 4.28006 14.3054 3.83471 14.4602 3.72546C14.8321 3.46292 15.302 3.24971 15.8008 3.11705C16.1478 3.0248 16.297 3.00894 16.8201 3.00894C17.3488 3.00894 17.491 3.02438 17.8556 3.12111C19.8034 3.63799 21.0767 5.45542 20.8742 7.42961C20.7922 8.22848 20.4772 9.04029 19.9988 9.68579C19.5731 10.2602 18.3226 11.482 16.6499 12.9579C15.0398 14.3787 12.0721 16.8885 12.0022 16.8885C11.9817 16.8885 11.4836 16.4857 10.8953 15.9933C7.20257 12.9027 4.67954 10.595 4.01893 9.70375C3.26712 8.68943 2.96262 7.45294 3.17503 6.27683C3.56123 4.13818 5.6867 2.67423 7.8636 3.0475Z" fill="white"/>
<path fill-rule="evenodd" clip-rule="evenodd" d="M6.27723 1.14375C3.78792 1.53071 1.84841 3.36276 1.30014 5.845C1.16769 6.44475 1.16984 7.59301 1.30458 8.22159C1.44096 8.85766 1.57083 9.22522 1.87977 9.84927C2.33274 10.7644 2.89099 11.4317 4.35268 12.8052C5.84619 14.2086 7.47765 15.6323 9.99308 17.7272C10.7843 18.3862 11.487 18.9542 11.5547 18.9896C11.7267 19.0794 12.1258 19.1085 12.3176 19.0451C12.4902 18.9881 12.6652 18.8516 14.157 17.6093C17.3386 14.9601 19.9819 12.5876 20.9578 11.5052C21.5426 10.8564 21.8497 10.4184 22.1482 9.807C22.4274 9.23498 22.57 8.82282 22.703 8.2032C22.8257 7.63148 22.8365 6.4768 22.7242 5.93861C22.3321 4.05967 21.1741 2.53544 19.5163 1.71648C17.888 0.912022 16.0329 0.867251 14.3765 1.59248C13.6502 1.91045 13.1382 2.27112 12.4149 2.97432L12.0034 3.37426L11.5485 2.93263C10.8577 2.26199 10.3063 1.88119 9.56234 1.56086C8.57631 1.13635 7.33713 0.97899 6.27723 1.14375ZM7.8636 3.0475C8.48917 3.15476 9.01614 3.36484 9.52984 3.71172C9.6693 3.80592 10.1638 4.25714 10.6287 4.71446C11.2658 5.34114 11.5155 5.55993 11.643 5.60275C11.8783 5.6819 12.2461 5.67171 12.4248 5.58111C12.5062 5.53984 12.9341 5.15013 13.3757 4.71509C13.8174 4.28006 14.3054 3.83471 14.4602 3.72546C14.8321 3.46292 15.302 3.24971 15.8008 3.11705C16.1478 3.0248 16.297 3.00894 16.8201 3.00894C17.3488 3.00894 17.491 3.02438 17.8556 3.12111C19.8034 3.63799 21.0767 5.45542 20.8742 7.42961C20.7922 8.22848 20.4772 9.04029 19.9988 9.68579C19.5731 10.2602 18.3226 11.482 16.6499 12.9579C15.0398 14.3787 12.0721 16.8885 12.0022 16.8885C11.9817 16.8885 11.4836 16.4857 10.8953 15.9933C7.20257 12.9027 4.67954 10.595 4.01893 9.70375C3.26712 8.68943 2.96262 7.45294 3.17503 6.27683C3.56123 4.13818 5.6867 2.67423 7.8636 3.0475Z" stroke="white" stroke-width="0.5" mask="url(#path-1-outside-1_939_4843)"/>
</svg>
