<svg width="36" height="36" viewBox="0 0 36 36" fill="none" xmlns="http://www.w3.org/2000/svg">
<circle cx="18" cy="18" r="16.75" fill="#5680E9" stroke="#5680E9" stroke-width="2.5"/>
<mask id="path-2-outside-1_1075_64" maskUnits="userSpaceOnUse" x="6.20117" y="9.08011" width="23" height="20" fill="white">
<rect fill="white" x="6.20117" y="9.08011" width="23" height="20"/>
<path fill-rule="evenodd" clip-rule="evenodd" d="M12.2762 10.1448C9.78694 10.5317 7.84743 12.3638 7.29916 14.846C7.16671 15.4458 7.16887 16.594 7.3036 17.2226C7.43998 17.8587 7.56985 18.2262 7.87879 18.8503C8.33176 19.7654 8.89001 20.4327 10.3517 21.8062C11.8452 23.2096 13.4767 24.6333 15.9921 26.7282C16.7833 27.3872 17.486 27.9552 17.5537 27.9906C17.7257 28.0804 18.1248 28.1095 18.3167 28.0461C18.4892 27.9892 18.6642 27.8526 20.1561 26.6103C23.3376 23.9611 25.9809 21.5886 26.9568 20.5062C27.5416 19.8574 27.8487 19.4194 28.1472 18.808C28.4264 18.236 28.569 17.8238 28.702 17.2042C28.8247 16.6325 28.8355 15.4778 28.7233 14.9396C28.3311 13.0607 27.1731 11.5364 25.5153 10.7175C23.887 9.91303 22.032 9.86826 20.3756 10.5935C19.6492 10.9115 19.1372 11.2721 18.4139 11.9753L18.0024 12.3753L17.5475 11.9336C16.8567 11.263 16.3053 10.8822 15.5614 10.5619C14.5753 10.1374 13.3362 9.98 12.2762 10.1448ZM13.8626 12.0485C14.4882 12.1558 15.0152 12.3658 15.5289 12.7127C15.6683 12.8069 16.1628 13.2582 16.6277 13.7155C17.2648 14.3421 17.5146 14.5609 17.642 14.6038C17.8773 14.6829 18.2452 14.6727 18.4238 14.5821C18.5052 14.5409 18.9331 14.1511 19.3747 13.7161C19.8164 13.2811 20.3044 12.8357 20.4592 12.7265C20.8312 12.4639 21.301 12.2507 21.7998 12.1181C22.1468 12.0258 22.296 12.01 22.8191 12.01C23.3478 12.01 23.49 12.0254 23.8546 12.1221C25.8024 12.639 27.0757 14.4564 26.8732 16.4306C26.7912 17.2295 26.4762 18.0413 25.9978 18.6868C25.5721 19.2612 24.3216 20.483 22.6489 21.9589C21.0388 23.3797 18.0711 25.8895 18.0012 25.8895C17.9807 25.8895 17.4826 25.4867 16.8943 24.9943C13.2016 21.9037 10.6786 19.596 10.018 18.7048C9.26614 17.6904 8.96164 16.454 9.17405 15.2778C9.56025 13.1392 11.6857 11.6752 13.8626 12.0485Z"/>
</mask>
<path fill-rule="evenodd" clip-rule="evenodd" d="M12.2762 10.1448C9.78694 10.5317 7.84743 12.3638 7.29916 14.846C7.16671 15.4458 7.16887 16.594 7.3036 17.2226C7.43998 17.8587 7.56985 18.2262 7.87879 18.8503C8.33176 19.7654 8.89001 20.4327 10.3517 21.8062C11.8452 23.2096 13.4767 24.6333 15.9921 26.7282C16.7833 27.3872 17.486 27.9552 17.5537 27.9906C17.7257 28.0804 18.1248 28.1095 18.3167 28.0461C18.4892 27.9892 18.6642 27.8526 20.1561 26.6103C23.3376 23.9611 25.9809 21.5886 26.9568 20.5062C27.5416 19.8574 27.8487 19.4194 28.1472 18.808C28.4264 18.236 28.569 17.8238 28.702 17.2042C28.8247 16.6325 28.8355 15.4778 28.7233 14.9396C28.3311 13.0607 27.1731 11.5364 25.5153 10.7175C23.887 9.91303 22.032 9.86826 20.3756 10.5935C19.6492 10.9115 19.1372 11.2721 18.4139 11.9753L18.0024 12.3753L17.5475 11.9336C16.8567 11.263 16.3053 10.8822 15.5614 10.5619C14.5753 10.1374 13.3362 9.98 12.2762 10.1448ZM13.8626 12.0485C14.4882 12.1558 15.0152 12.3658 15.5289 12.7127C15.6683 12.8069 16.1628 13.2582 16.6277 13.7155C17.2648 14.3421 17.5146 14.5609 17.642 14.6038C17.8773 14.6829 18.2452 14.6727 18.4238 14.5821C18.5052 14.5409 18.9331 14.1511 19.3747 13.7161C19.8164 13.2811 20.3044 12.8357 20.4592 12.7265C20.8312 12.4639 21.301 12.2507 21.7998 12.1181C22.1468 12.0258 22.296 12.01 22.8191 12.01C23.3478 12.01 23.49 12.0254 23.8546 12.1221C25.8024 12.639 27.0757 14.4564 26.8732 16.4306C26.7912 17.2295 26.4762 18.0413 25.9978 18.6868C25.5721 19.2612 24.3216 20.483 22.6489 21.9589C21.0388 23.3797 18.0711 25.8895 18.0012 25.8895C17.9807 25.8895 17.4826 25.4867 16.8943 24.9943C13.2016 21.9037 10.6786 19.596 10.018 18.7048C9.26614 17.6904 8.96164 16.454 9.17405 15.2778C9.56025 13.1392 11.6857 11.6752 13.8626 12.0485Z" fill="white"/>
<path fill-rule="evenodd" clip-rule="evenodd" d="M12.2762 10.1448C9.78694 10.5317 7.84743 12.3638 7.29916 14.846C7.16671 15.4458 7.16887 16.594 7.3036 17.2226C7.43998 17.8587 7.56985 18.2262 7.87879 18.8503C8.33176 19.7654 8.89001 20.4327 10.3517 21.8062C11.8452 23.2096 13.4767 24.6333 15.9921 26.7282C16.7833 27.3872 17.486 27.9552 17.5537 27.9906C17.7257 28.0804 18.1248 28.1095 18.3167 28.0461C18.4892 27.9892 18.6642 27.8526 20.1561 26.6103C23.3376 23.9611 25.9809 21.5886 26.9568 20.5062C27.5416 19.8574 27.8487 19.4194 28.1472 18.808C28.4264 18.236 28.569 17.8238 28.702 17.2042C28.8247 16.6325 28.8355 15.4778 28.7233 14.9396C28.3311 13.0607 27.1731 11.5364 25.5153 10.7175C23.887 9.91303 22.032 9.86826 20.3756 10.5935C19.6492 10.9115 19.1372 11.2721 18.4139 11.9753L18.0024 12.3753L17.5475 11.9336C16.8567 11.263 16.3053 10.8822 15.5614 10.5619C14.5753 10.1374 13.3362 9.98 12.2762 10.1448ZM13.8626 12.0485C14.4882 12.1558 15.0152 12.3658 15.5289 12.7127C15.6683 12.8069 16.1628 13.2582 16.6277 13.7155C17.2648 14.3421 17.5146 14.5609 17.642 14.6038C17.8773 14.6829 18.2452 14.6727 18.4238 14.5821C18.5052 14.5409 18.9331 14.1511 19.3747 13.7161C19.8164 13.2811 20.3044 12.8357 20.4592 12.7265C20.8312 12.4639 21.301 12.2507 21.7998 12.1181C22.1468 12.0258 22.296 12.01 22.8191 12.01C23.3478 12.01 23.49 12.0254 23.8546 12.1221C25.8024 12.639 27.0757 14.4564 26.8732 16.4306C26.7912 17.2295 26.4762 18.0413 25.9978 18.6868C25.5721 19.2612 24.3216 20.483 22.6489 21.9589C21.0388 23.3797 18.0711 25.8895 18.0012 25.8895C17.9807 25.8895 17.4826 25.4867 16.8943 24.9943C13.2016 21.9037 10.6786 19.596 10.018 18.7048C9.26614 17.6904 8.96164 16.454 9.17405 15.2778C9.56025 13.1392 11.6857 11.6752 13.8626 12.0485Z" stroke="white" stroke-width="0.5" mask="url(#path-2-outside-1_1075_64)"/>
</svg>
