<svg width="50" height="50" viewBox="0 0 50 50" fill="none" xmlns="http://www.w3.org/2000/svg">
<path fill-rule="evenodd" clip-rule="evenodd" d="M22.7476 0.100072C19.7671 0.382897 16.4336 1.33321 13.8535 2.63563C9.68795 4.73835 6.05584 8.09356 3.63147 12.0783C2.76757 13.4982 2.34984 14.3425 1.70448 15.9732C-1.15932 23.2083 -0.384259 31.5225 3.80231 38.4801C6.68654 43.2732 11.2608 47.1783 16.2474 49.1047C17.1601 49.4573 17.6742 49.6261 18.9603 49.9955C19.1213 50.0417 19.1313 49.8007 19.1313 45.8978V41.7509L18.7159 41.8312C16.9915 42.1647 14.8491 41.512 13.5969 40.2715C13.273 39.9507 12.7916 39.3658 12.527 38.9718C12.2623 38.5776 11.8478 38.0398 11.6058 37.7766C11.1608 37.2926 10.3718 36.8409 9.96846 36.8391C9.84755 36.8386 9.74649 36.7832 9.74405 36.716C9.74161 36.6489 9.68453 35.9892 9.61719 35.2501L9.49472 33.9063H9.94314C10.5272 33.9063 11.3818 34.1325 12.0226 34.4566C13.1381 35.0209 13.9543 35.8229 15.0052 37.387C15.4513 38.0511 15.8313 38.4055 16.4322 38.7184C16.9167 38.9706 18.0469 39.013 18.7602 38.8057C19.2084 38.6755 19.2226 38.6594 19.3254 38.1641C19.4655 37.4896 19.8897 36.6108 20.441 35.8533C20.6883 35.5135 20.8906 35.2067 20.8906 35.1716C20.8906 35.1364 20.4838 35.0317 19.9865 34.9386C18.9234 34.7397 16.9894 34.1092 16.1534 33.689C14.0017 32.6075 12.4255 31.0988 11.3719 29.1124C9.96181 26.4539 9.77054 23.1825 10.8465 20.1266C11.2296 19.0387 11.5136 18.4841 12.1695 17.5435L12.71 16.7684L12.543 16.0776C12.1654 14.5158 12.2415 12.6012 12.7444 11.0094C12.977 10.273 12.9965 10.2453 13.2489 10.2946C13.3933 10.3228 13.7753 10.3754 14.0979 10.4115C15.1629 10.5304 16.3235 11.0217 18.2723 12.1783C19.4906 12.9015 19.3527 12.8851 21.0861 12.5116C23.8198 11.9225 26.8916 11.9979 29.9458 12.7289L30.5468 12.8728L31.4608 12.3335C33.6557 11.0383 34.9893 10.5099 36.5495 10.3176L37.0102 10.2608L37.2494 11.0182C37.7479 12.5959 37.8245 14.5107 37.4516 16.0709L37.2881 16.755L37.8455 17.6346C39.3704 20.0405 39.8802 21.6322 39.8802 23.9869C39.8802 28.2199 37.6755 31.76 33.8377 33.689C33.0017 34.1092 31.0677 34.7397 30.0046 34.9386C29.5074 35.0317 29.1005 35.1352 29.1005 35.1688C29.1005 35.2024 29.3263 35.5367 29.6023 35.9118C29.8782 36.287 30.2096 36.821 30.3386 37.0986C30.831 38.1579 30.8563 38.5165 30.8581 44.4919C30.8597 49.7333 30.8694 50.0419 31.0308 49.9955C32.3169 49.6261 32.831 49.4573 33.7437 49.1047C39.4271 46.9091 44.363 42.3247 47.2045 36.6022C50.5069 29.9516 50.8988 22.5693 48.2981 16.0014C47.6411 14.3422 47.2264 13.5029 46.3596 12.0783C44.2754 8.65266 41.3574 5.73498 37.9315 3.65093C36.5104 2.78652 35.6675 2.36961 34.0281 1.7206C30.5218 0.33247 26.4554 -0.25175 22.7476 0.100072Z" fill="white"/>
</svg>
