<svg width="15" height="15" viewBox="0 0 15 15" fill="none" xmlns="http://www.w3.org/2000/svg">
<path fill-rule="evenodd" clip-rule="evenodd" d="M6.71796 0.0165043C4.9235 0.237024 3.42072 0.96849 2.17298 2.22877C1.06459 3.34829 0.42424 4.54595 0.100555 6.10483C-0.0215034 6.69265 -0.0354431 8.1622 0.0752402 8.77645C0.348352 10.2923 1.0807 11.6795 2.19428 12.7909C3.31347 13.9078 4.60968 14.5904 6.17048 14.885C6.17069 14.8851 6.17064 14.8851 6.17084 14.8851C6.17738 14.8863 6.77753 15 7.47072 15C8.09611 15 8.72845 14.9061 8.75932 14.9015C8.76031 14.9013 8.76097 14.9012 8.76196 14.9011C9.35558 14.8052 10.283 14.5013 10.8442 14.2186C11.6066 13.8346 12.1132 13.4657 12.7757 12.8123C13.9053 11.698 14.5505 10.5017 14.8964 8.88081C15.0342 8.23456 15.0346 6.764 14.8971 6.10483C14.6829 5.07793 14.2857 4.12289 13.7168 3.26624C13.3657 2.73771 12.2764 1.64658 11.7596 1.30578C10.8608 0.713072 9.89175 0.306096 8.93614 0.120085C8.48677 0.0325897 7.11023 -0.0316961 6.71796 0.0165043ZM1.5 7.5C1.5 11 4.5 13.5 7.5 13.5C10.5 13.5 13.5 11 13.5 7.5C13.5 4 10.5 1.5 7.5 1.5C4.5 1.5 1.5 4 1.5 7.5Z" fill="#6F6F6F"/>
<path d="M4 6.63314V9.65C4 9.8433 4.1567 10 4.35 10H5.15C5.3433 10 5.5 9.8433 5.5 9.65V7.77901C5.5 7.47707 5.85669 7.31682 6.08243 7.51733L7.26757 8.57C7.40015 8.68776 7.59985 8.68776 7.73243 8.57L8.91757 7.51733C9.14331 7.31682 9.5 7.47707 9.5 7.77901V9.65C9.5 9.8433 9.6567 10 9.85 10H10.65C10.8433 10 11 9.8433 11 9.65V6.63314V4.76098C11 4.46195 10.6493 4.30064 10.4222 4.49524L7.72778 6.80476C7.59671 6.91711 7.40329 6.91711 7.27222 6.80476L4.57778 4.49524C4.35074 4.30064 4 4.46195 4 4.76098V6.63314Z" fill="#6F6F6F"/>
</svg>
