<svg width="15" height="15" viewBox="0 0 15 15" fill="none" xmlns="http://www.w3.org/2000/svg">
<path fill-rule="evenodd" clip-rule="evenodd" d="M9.7237 1.67365L9.66348 2.00004C9.62711 2.19752 9.75443 2.3889 9.95687 2.44098C10.388 2.55195 10.6614 2.65026 10.9938 2.81403C12.2689 3.44221 13.1823 4.6034 13.4088 5.88394C13.4678 6.21777 13.4779 6.47983 13.4473 6.87813C13.4328 7.06571 13.5692 7.23328 13.7628 7.26595L14.1735 7.33524L14.7799 7.43753C14.8602 7.45107 14.9367 7.39978 14.9508 7.32298C15.0383 6.84774 15.0057 5.98861 14.8802 5.45895C14.3685 3.2995 12.554 1.60532 10.1836 1.07356C10.0015 1.03271 9.82081 1.14666 9.78834 1.32294L9.7237 1.67365ZM3.15198 0.00164925C2.75169 0.0269262 2.53651 0.109272 1.9714 0.453423C1.3898 0.807609 1.11837 1.019 0.86996 1.31115C0.26862 2.01838 -0.0403516 3.06178 0.00423199 4.23464C0.122242 7.33972 2.53634 11.141 5.78927 13.3437C6.48449 13.8146 7.0729 14.1362 7.75698 14.4194C8.43708 14.7009 8.73422 14.7875 9.41098 14.9016C10.0896 15.0162 10.4474 15.0275 11.014 14.9523C11.6711 14.8649 12.0387 14.7146 12.8627 14.1957C13.4353 13.8351 13.5217 13.7705 13.6594 13.6004L13.6654 13.593C13.763 13.4723 13.83 13.3317 13.8609 13.182L13.9018 12.9847C13.9796 12.6085 13.9858 12.542 13.9557 12.4049C13.8853 12.0846 13.7756 11.9301 12.5176 10.3798C11.3399 8.92848 11.2788 8.85858 11.0695 8.72285C10.5992 8.41778 10.0043 8.32369 9.42605 8.46282C9.20673 8.51557 9.10901 8.56561 8.52162 8.92582L8.0162 9.23575C7.91772 9.29613 7.7991 9.31884 7.68391 9.29947C7.19997 9.2178 6.46659 8.69956 6.08878 8.17227C5.78891 7.75378 5.49435 7.06034 5.46662 6.70775C5.45344 6.54034 5.49896 6.29455 5.5555 6.22775C5.57979 6.19905 5.89803 5.98622 6.26268 5.7548C6.9635 5.31004 7.0852 5.20449 7.25139 4.89737C7.35906 4.69837 7.42795 4.32472 7.39767 4.10408C7.36548 3.86974 7.27982 3.64085 7.15746 3.4625C7.09974 3.37834 6.4994 2.66596 5.82341 1.87944C4.51688 0.359307 4.47619 0.318956 4.08756 0.158014C3.87467 0.0698211 3.38036 -0.0127811 3.15198 0.00164925ZM4.60997 2.79961C5.24959 3.61372 5.77397 4.2995 5.77529 4.32359C5.77832 4.37861 5.70354 4.42765 5.0504 4.79893C4.48966 5.11768 4.35615 5.22681 4.15655 5.52944C4.0566 5.68101 4.04069 5.73015 3.97021 6.1055C3.88392 6.56471 3.89109 6.76653 4.01019 7.2306C4.22597 8.07151 4.8461 9.01644 5.59738 9.64909C6.34348 10.2775 7.32563 10.6683 8.08477 10.6389C8.51134 10.6224 8.65769 10.5643 9.37768 10.1253C9.75381 9.89597 10.06 9.72765 10.0914 9.73286C10.1242 9.73847 10.6028 10.3215 11.282 11.1834C12.3583 12.549 12.4161 12.6286 12.3868 12.7012C12.3641 12.7577 12.207 12.8696 11.7943 13.1233C11.2849 13.4367 11.2075 13.4748 10.9617 13.5341C10.6195 13.6166 10.4098 13.6294 9.96467 13.5945C8.24544 13.4601 6.11614 12.179 4.27648 10.1724C3.2705 9.0751 2.38198 7.54925 1.91365 6.11467C1.33523 4.34281 1.43768 2.8484 2.19164 2.06034C2.41377 1.82819 3.25716 1.28737 3.36795 1.30606C3.43274 1.31699 3.65711 1.58681 4.60997 2.79961ZM9.51033 3.73553C9.40736 3.72414 9.34192 3.79122 9.31815 3.88775C9.27497 4.0631 9.27341 4.13557 9.22374 4.4249L9.13927 4.91695C9.12385 5.00681 9.18144 5.0934 9.27304 5.1181C9.91103 5.29008 10.3871 5.8579 10.3801 6.43859C10.3787 6.56552 10.4781 6.68842 10.6068 6.71888C10.72 6.74563 10.8858 6.78057 11.1267 6.82122C11.3145 6.85291 11.4819 6.87819 11.6117 6.89625C11.7855 6.92045 11.9072 6.83575 11.9189 6.66806C11.984 5.73089 11.5058 4.81493 10.6507 4.23884C10.4431 4.09905 10.1869 3.96861 9.95923 3.8837C9.82605 3.83402 9.68928 3.78538 9.55343 3.74272C9.54565 3.74028 9.52981 3.73768 9.51033 3.73553Z" fill="black"/>
</svg>
