<svg width="43" height="52" viewBox="0 0 43 52" fill="none" xmlns="http://www.w3.org/2000/svg">
<mask id="path-1-outside-1_862_2761" maskUnits="userSpaceOnUse" x="0.5" y="0" width="42" height="52" fill="white">
<rect fill="white" x="0.5" width="42" height="52"/>
<path fill-rule="evenodd" clip-rule="evenodd" d="M7.2321 12.2408L7.20391 21.5098C7.20058 22.6033 6.31962 23.4915 5.22616 23.5036L4.34896 23.5134L3.47776 23.5231C2.38193 23.5353 1.5 24.427 1.5 25.5229V26.0047V26.4864C1.5 27.5823 2.38193 28.4741 3.47776 28.4863L4.34896 28.496L5.24866 28.506C6.33319 28.5181 7.21046 29.3924 7.22621 30.4769L7.23411 31.0214L7.24086 31.486C7.25705 32.6018 6.35699 33.515 5.24107 33.515H4.38516H3.5C2.39543 33.515 1.5 34.4105 1.5 35.515V36.038V36.561C1.5 37.6656 2.39543 38.561 3.5 38.561H4.38247H5.26495C6.36952 38.561 7.26495 39.4565 7.26495 40.561V44.7805V49C7.26495 50.1046 8.16038 51 9.26495 51H10.0804H10.8958C12.0004 51 12.8958 50.1046 12.8958 49V44.7805V40.561C12.8958 39.4565 13.7913 38.561 14.8958 38.561H21.4092H27.9225C29.0271 38.561 29.9225 37.6656 29.9225 36.561V36.038V35.515C29.9225 34.4105 29.0271 33.515 27.9225 33.515H21.4065H14.9197C13.8038 33.515 12.9037 32.6018 12.9199 31.486L12.9267 31.0214L12.9345 30.4826C12.9503 29.3958 13.831 28.5206 14.9179 28.5117L20.6718 28.4646L28.1542 28.4033C28.3047 28.4021 28.4547 28.3838 28.6012 28.3489L29.6938 28.0887C32.5083 27.4182 34.925 26.2081 36.8972 24.4819C38.7051 22.8994 39.9951 21.0525 40.7514 18.9638C41.3145 17.4088 41.5055 16.3153 41.4999 14.6805C41.4782 8.39063 36.7646 3.08353 29.6938 1.3876L28.6073 1.12707C28.4568 1.09098 28.3026 1.07249 28.1478 1.07195L17.8235 1.03638L9.26709 1.00689C8.16221 1.00309 7.26356 1.89592 7.2602 3.0008L7.2321 12.2408ZM28.3522 6.26298C31.8956 7.12667 34.6841 9.63113 35.5684 12.7443C35.805 13.5778 35.805 15.9006 35.5684 16.7341C34.8638 19.2148 32.8761 21.4124 30.3265 22.5295C28.1867 23.4671 28.0287 23.4817 20.0015 23.4817H14.9548C13.8534 23.4817 12.9593 22.5912 12.9548 21.4897L12.9281 14.8566C12.9091 10.1127 12.9237 6.16206 12.9607 6.07733C13.0154 5.952 14.3619 5.93123 20.1681 5.96585C27.002 6.00669 27.353 6.01936 28.3522 6.26298Z"/>
</mask>
<path fill-rule="evenodd" clip-rule="evenodd" d="M7.2321 12.2408L7.20391 21.5098C7.20058 22.6033 6.31962 23.4915 5.22616 23.5036L4.34896 23.5134L3.47776 23.5231C2.38193 23.5353 1.5 24.427 1.5 25.5229V26.0047V26.4864C1.5 27.5823 2.38193 28.4741 3.47776 28.4863L4.34896 28.496L5.24866 28.506C6.33319 28.5181 7.21046 29.3924 7.22621 30.4769L7.23411 31.0214L7.24086 31.486C7.25705 32.6018 6.35699 33.515 5.24107 33.515H4.38516H3.5C2.39543 33.515 1.5 34.4105 1.5 35.515V36.038V36.561C1.5 37.6656 2.39543 38.561 3.5 38.561H4.38247H5.26495C6.36952 38.561 7.26495 39.4565 7.26495 40.561V44.7805V49C7.26495 50.1046 8.16038 51 9.26495 51H10.0804H10.8958C12.0004 51 12.8958 50.1046 12.8958 49V44.7805V40.561C12.8958 39.4565 13.7913 38.561 14.8958 38.561H21.4092H27.9225C29.0271 38.561 29.9225 37.6656 29.9225 36.561V36.038V35.515C29.9225 34.4105 29.0271 33.515 27.9225 33.515H21.4065H14.9197C13.8038 33.515 12.9037 32.6018 12.9199 31.486L12.9267 31.0214L12.9345 30.4826C12.9503 29.3958 13.831 28.5206 14.9179 28.5117L20.6718 28.4646L28.1542 28.4033C28.3047 28.4021 28.4547 28.3838 28.6012 28.3489L29.6938 28.0887C32.5083 27.4182 34.925 26.2081 36.8972 24.4819C38.7051 22.8994 39.9951 21.0525 40.7514 18.9638C41.3145 17.4088 41.5055 16.3153 41.4999 14.6805C41.4782 8.39063 36.7646 3.08353 29.6938 1.3876L28.6073 1.12707C28.4568 1.09098 28.3026 1.07249 28.1478 1.07195L17.8235 1.03638L9.26709 1.00689C8.16221 1.00309 7.26356 1.89592 7.2602 3.0008L7.2321 12.2408ZM28.3522 6.26298C31.8956 7.12667 34.6841 9.63113 35.5684 12.7443C35.805 13.5778 35.805 15.9006 35.5684 16.7341C34.8638 19.2148 32.8761 21.4124 30.3265 22.5295C28.1867 23.4671 28.0287 23.4817 20.0015 23.4817H14.9548C13.8534 23.4817 12.9593 22.5912 12.9548 21.4897L12.9281 14.8566C12.9091 10.1127 12.9237 6.16206 12.9607 6.07733C13.0154 5.952 14.3619 5.93123 20.1681 5.96585C27.002 6.00669 27.353 6.01936 28.3522 6.26298Z" fill="#5680E9"/>
<path fill-rule="evenodd" clip-rule="evenodd" d="M7.2321 12.2408L7.20391 21.5098C7.20058 22.6033 6.31962 23.4915 5.22616 23.5036L4.34896 23.5134L3.47776 23.5231C2.38193 23.5353 1.5 24.427 1.5 25.5229V26.0047V26.4864C1.5 27.5823 2.38193 28.4741 3.47776 28.4863L4.34896 28.496L5.24866 28.506C6.33319 28.5181 7.21046 29.3924 7.22621 30.4769L7.23411 31.0214L7.24086 31.486C7.25705 32.6018 6.35699 33.515 5.24107 33.515H4.38516H3.5C2.39543 33.515 1.5 34.4105 1.5 35.515V36.038V36.561C1.5 37.6656 2.39543 38.561 3.5 38.561H4.38247H5.26495C6.36952 38.561 7.26495 39.4565 7.26495 40.561V44.7805V49C7.26495 50.1046 8.16038 51 9.26495 51H10.0804H10.8958C12.0004 51 12.8958 50.1046 12.8958 49V44.7805V40.561C12.8958 39.4565 13.7913 38.561 14.8958 38.561H21.4092H27.9225C29.0271 38.561 29.9225 37.6656 29.9225 36.561V36.038V35.515C29.9225 34.4105 29.0271 33.515 27.9225 33.515H21.4065H14.9197C13.8038 33.515 12.9037 32.6018 12.9199 31.486L12.9267 31.0214L12.9345 30.4826C12.9503 29.3958 13.831 28.5206 14.9179 28.5117L20.6718 28.4646L28.1542 28.4033C28.3047 28.4021 28.4547 28.3838 28.6012 28.3489L29.6938 28.0887C32.5083 27.4182 34.925 26.2081 36.8972 24.4819C38.7051 22.8994 39.9951 21.0525 40.7514 18.9638C41.3145 17.4088 41.5055 16.3153 41.4999 14.6805C41.4782 8.39063 36.7646 3.08353 29.6938 1.3876L28.6073 1.12707C28.4568 1.09098 28.3026 1.07249 28.1478 1.07195L17.8235 1.03638L9.26709 1.00689C8.16221 1.00309 7.26356 1.89592 7.2602 3.0008L7.2321 12.2408ZM28.3522 6.26298C31.8956 7.12667 34.6841 9.63113 35.5684 12.7443C35.805 13.5778 35.805 15.9006 35.5684 16.7341C34.8638 19.2148 32.8761 21.4124 30.3265 22.5295C28.1867 23.4671 28.0287 23.4817 20.0015 23.4817H14.9548C13.8534 23.4817 12.9593 22.5912 12.9548 21.4897L12.9281 14.8566C12.9091 10.1127 12.9237 6.16206 12.9607 6.07733C13.0154 5.952 14.3619 5.93123 20.1681 5.96585C27.002 6.00669 27.353 6.01936 28.3522 6.26298Z" stroke="#5680E9" stroke-width="2" mask="url(#path-1-outside-1_862_2761)"/>
</svg>
