<svg width="15" height="16" viewBox="0 0 15 16" fill="none" xmlns="http://www.w3.org/2000/svg">
<path fill-rule="evenodd" clip-rule="evenodd" d="M13.3656 0.619426C13.0208 0.786912 6.37574 7.24204 6.2534 7.52831C6.15069 7.76855 6.15053 8.17496 6.25309 8.4157C6.3627 8.67307 13.1234 15.2581 13.4238 15.4002C13.5517 15.4606 13.7419 15.5 13.9064 15.5C14.7109 15.5 15.2312 14.7041 14.8971 13.9843C14.8167 13.8112 14.0828 13.0668 11.8209 10.8643L8.85025 7.9716L11.7952 5.1046C14.0417 2.91759 14.7652 2.18368 14.8454 2.01024C15.2742 1.08374 14.298 0.166281 13.3656 0.619426Z" fill="#5680E9"/>
<path fill-rule="evenodd" clip-rule="evenodd" d="M1.63393 15.3806C1.97868 15.2131 8.62377 8.75796 8.74611 8.47169C8.84882 8.23145 8.84898 7.82504 8.74643 7.5843C8.63681 7.32693 1.87613 0.741857 1.57574 0.599836C1.44779 0.539358 1.25759 0.5 1.09311 0.5C0.288591 0.5 -0.231653 1.29595 0.102449 2.0157C0.182818 2.1888 0.916737 2.93321 3.17861 5.13573L6.14926 8.0284L3.20427 10.8954C0.957779 13.0824 0.234352 13.8163 0.154086 13.9898C-0.274671 14.9163 0.7015 15.8337 1.63393 15.3806Z" fill="#5680E9"/>
</svg>
