<svg width="52" height="52" viewBox="0 0 52 52" fill="none" xmlns="http://www.w3.org/2000/svg">
<mask id="path-1-outside-1_862_2725" maskUnits="userSpaceOnUse" x="0" y="0" width="52" height="52" fill="white">
<rect fill="white" width="52" height="52"/>
<path fill-rule="evenodd" clip-rule="evenodd" d="M30.1181 1.02817C33.7247 1.44029 35.9471 2.05479 38.5449 3.35826C40.7103 4.44474 42.318 5.58044 44.0795 7.26798C51.1762 14.067 53.0281 24.6765 48.6417 33.4045C43.8478 42.9437 33.2031 47.803 22.9094 45.1514C20.0799 44.4225 17.6368 43.221 14.7174 41.1225C14.5947 41.0343 13.4212 42.1374 9.72816 45.8128C4.39978 51.1156 4.41137 51.1065 3.18308 50.9612C1.638 50.7783 0.680503 49.3065 1.09805 47.7557C1.23555 47.2447 1.63636 46.8104 6.11443 42.3176C9.82107 38.5989 10.9539 37.397 10.8659 37.2763C8.58225 34.1375 7.24571 31.2229 6.53127 27.8241C6.15644 26.0408 6.01496 22.6876 6.23801 20.8784C6.63004 17.7 7.69426 14.5438 9.22857 12.0093C11.5888 8.11081 14.7848 5.19065 18.8252 3.24088C21.0326 2.17556 22.8575 1.60291 25.1773 1.24761C26.3114 1.07388 29.3406 0.939312 30.1181 1.02817ZM25.0549 6.32588C20.4635 7.29978 16.6505 9.85435 14.0778 13.6798C10.1008 19.5936 10.0903 27.1834 14.0513 33.1642C15.1024 34.7514 17.244 36.8906 18.8339 37.9416C22.1567 40.1381 26.0224 41.1438 29.9195 40.8257C36.0719 40.3235 41.3828 36.7692 44.1203 31.3218C48.1756 23.2523 45.5011 13.5233 37.8888 8.65352C35.9741 7.42862 33.2463 6.44736 30.8104 6.10737C29.5387 5.92978 26.3515 6.05079 25.0549 6.32588Z"/>
</mask>
<path fill-rule="evenodd" clip-rule="evenodd" d="M30.1181 1.02817C33.7247 1.44029 35.9471 2.05479 38.5449 3.35826C40.7103 4.44474 42.318 5.58044 44.0795 7.26798C51.1762 14.067 53.0281 24.6765 48.6417 33.4045C43.8478 42.9437 33.2031 47.803 22.9094 45.1514C20.0799 44.4225 17.6368 43.221 14.7174 41.1225C14.5947 41.0343 13.4212 42.1374 9.72816 45.8128C4.39978 51.1156 4.41137 51.1065 3.18308 50.9612C1.638 50.7783 0.680503 49.3065 1.09805 47.7557C1.23555 47.2447 1.63636 46.8104 6.11443 42.3176C9.82107 38.5989 10.9539 37.397 10.8659 37.2763C8.58225 34.1375 7.24571 31.2229 6.53127 27.8241C6.15644 26.0408 6.01496 22.6876 6.23801 20.8784C6.63004 17.7 7.69426 14.5438 9.22857 12.0093C11.5888 8.11081 14.7848 5.19065 18.8252 3.24088C21.0326 2.17556 22.8575 1.60291 25.1773 1.24761C26.3114 1.07388 29.3406 0.939312 30.1181 1.02817ZM25.0549 6.32588C20.4635 7.29978 16.6505 9.85435 14.0778 13.6798C10.1008 19.5936 10.0903 27.1834 14.0513 33.1642C15.1024 34.7514 17.244 36.8906 18.8339 37.9416C22.1567 40.1381 26.0224 41.1438 29.9195 40.8257C36.0719 40.3235 41.3828 36.7692 44.1203 31.3218C48.1756 23.2523 45.5011 13.5233 37.8888 8.65352C35.9741 7.42862 33.2463 6.44736 30.8104 6.10737C29.5387 5.92978 26.3515 6.05079 25.0549 6.32588Z" fill="#5680E9"/>
<path fill-rule="evenodd" clip-rule="evenodd" d="M30.1181 1.02817C33.7247 1.44029 35.9471 2.05479 38.5449 3.35826C40.7103 4.44474 42.318 5.58044 44.0795 7.26798C51.1762 14.067 53.0281 24.6765 48.6417 33.4045C43.8478 42.9437 33.2031 47.803 22.9094 45.1514C20.0799 44.4225 17.6368 43.221 14.7174 41.1225C14.5947 41.0343 13.4212 42.1374 9.72816 45.8128C4.39978 51.1156 4.41137 51.1065 3.18308 50.9612C1.638 50.7783 0.680503 49.3065 1.09805 47.7557C1.23555 47.2447 1.63636 46.8104 6.11443 42.3176C9.82107 38.5989 10.9539 37.397 10.8659 37.2763C8.58225 34.1375 7.24571 31.2229 6.53127 27.8241C6.15644 26.0408 6.01496 22.6876 6.23801 20.8784C6.63004 17.7 7.69426 14.5438 9.22857 12.0093C11.5888 8.11081 14.7848 5.19065 18.8252 3.24088C21.0326 2.17556 22.8575 1.60291 25.1773 1.24761C26.3114 1.07388 29.3406 0.939312 30.1181 1.02817ZM25.0549 6.32588C20.4635 7.29978 16.6505 9.85435 14.0778 13.6798C10.1008 19.5936 10.0903 27.1834 14.0513 33.1642C15.1024 34.7514 17.244 36.8906 18.8339 37.9416C22.1567 40.1381 26.0224 41.1438 29.9195 40.8257C36.0719 40.3235 41.3828 36.7692 44.1203 31.3218C48.1756 23.2523 45.5011 13.5233 37.8888 8.65352C35.9741 7.42862 33.2463 6.44736 30.8104 6.10737C29.5387 5.92978 26.3515 6.05079 25.0549 6.32588Z" stroke="#5680E9" stroke-width="2" mask="url(#path-1-outside-1_862_2725)"/>
</svg>
