<svg width="50" height="50" viewBox="0 0 50 50" fill="none" xmlns="http://www.w3.org/2000/svg">
<path fill-rule="evenodd" clip-rule="evenodd" d="M22.9321 0.135424C14.9259 0.75121 7.53957 5.40118 3.3959 12.434C-1.13197 20.1189 -1.13197 29.9424 3.3959 37.6273C10.9729 50.4874 27.9603 53.9388 39.9561 45.0557C43.9405 42.1052 47.1252 37.7089 48.6995 32.9863C53.4584 18.7103 44.6944 3.54008 29.9554 0.540367C28.758 0.29672 25.3772 -0.044929 24.6565 0.00488919C24.5066 0.0153701 23.7306 0.0740358 22.9321 0.135424ZM14.9425 17.8165C15.1169 20.3415 15.7943 23.1195 16.6521 24.8265C17.8509 27.2123 19.7285 28.9844 21.6923 29.5834L21.9989 29.677V22.998V16.3193H24.4521H26.9053V20.1483V23.9774L27.4164 23.8949C28.8047 23.6709 30.8641 22.2108 32.1553 20.535C32.8884 19.5835 33.7399 18.0151 34.0563 17.0339L34.2867 16.3193H36.7463H39.206L39.1166 16.8769C38.6673 19.6836 36.0845 23.516 33.3958 25.3654C32.9743 25.6554 32.6293 25.9323 32.6293 25.9809C32.6293 26.0295 32.8594 26.1784 33.1404 26.3118C35.2738 27.3247 37.9463 30.1054 39.2346 32.6531C39.6091 33.3936 40.3977 35.3833 40.3977 35.5878C40.3977 35.6207 39.1654 35.6477 37.6591 35.6477C34.9338 35.6477 34.9203 35.6462 34.8409 35.3414C34.797 35.1729 34.4858 34.4855 34.1493 33.8138C33.353 32.2241 31.6973 30.5124 30.217 29.7488C29.2359 29.2426 27.2536 28.6429 27.026 28.7835C26.9597 28.8245 26.9053 30.3856 26.9053 32.2528V35.6477L26.4623 35.6475C25.4642 35.6472 22.9951 35.3511 21.9365 35.1046C14.5894 33.3936 10.2986 27.3377 9.6572 17.7741L9.55921 16.3133L12.2015 16.3503L14.8439 16.3873L14.9425 17.8165Z" fill="white"/>
</svg>
