<svg width="30" height="30" viewBox="0 0 30 30" fill="none" xmlns="http://www.w3.org/2000/svg">
<path fill-rule="evenodd" clip-rule="evenodd" d="M16.3447 0.0727515C16.016 0.190693 15.7805 0.386026 15.6044 0.686882C15.3939 1.04647 15.3805 1.60034 15.5735 1.9687C15.8522 2.5005 16.1134 2.62756 17.4298 2.87139C19.2168 3.20238 21.2145 4.13767 22.682 5.33044C23.2639 5.80333 24.3268 6.90564 24.78 7.5063C25.9342 9.036 26.6651 10.6978 27.0848 12.7467C27.2387 13.4979 27.3017 15.4964 27.198 16.3339C27.016 17.8032 26.6358 19.0996 26.0229 20.3413C24.7841 22.8507 22.8855 24.7587 20.393 25.9991C18.6788 26.8522 17.0107 27.2373 15.02 27.2394C13.0212 27.2415 11.3986 26.87 9.63993 26.0075C7.20167 24.8117 5.27964 22.912 4.05198 20.4843C3.2405 18.8798 2.8677 17.4511 2.75323 15.5078C2.70211 14.64 2.6864 14.5536 2.52867 14.2719C2.22333 13.7268 1.50816 13.4459 0.920824 13.6405C0.604238 13.7455 0.263854 14.0758 0.114851 14.4226C-0.0112321 14.7163 -0.0167421 14.7834 0.0191897 15.5876C0.18988 19.4106 1.71543 22.8945 4.39823 25.5881C7.91831 29.1224 12.8633 30.6559 17.7876 29.7403C23.8192 28.6186 28.6359 23.7853 29.7419 17.7445C30.5183 13.5046 29.5302 9.28842 26.9496 5.83046C26.4264 5.12922 25.1803 3.83593 24.4698 3.25676C22.5134 1.66172 20.0473 0.532452 17.5913 0.106827C16.8215 -0.0265923 16.6357 -0.0316537 16.3447 0.0727515ZM3.3024 0.281915C1.9649 0.495846 0.949546 1.34551 0.622116 2.52474C0.491695 2.99451 0.451308 3.40948 0.498787 3.79114C0.605703 4.65045 1.51091 4.96961 2.0721 4.34595C2.27738 4.11784 2.31683 3.9863 2.28852 3.62453C2.26226 3.2883 2.40182 2.83649 2.60604 2.59696C3.28441 1.80121 4.92144 1.93851 5.47366 2.83743C5.6814 3.17554 5.74042 3.70351 5.62718 4.21135C5.52882 4.65275 5.11739 5.07996 3.69038 6.22242C1.94696 7.61823 1.00465 8.64487 0.578037 9.61317C0.374873 10.0743 0.484954 10.4767 0.899312 10.7874C1.05717 10.9058 1.13542 10.9092 4.07496 10.925C7.02195 10.9409 7.09405 10.9386 7.32623 10.8197C7.96186 10.494 7.96145 9.56203 7.32552 9.22274C7.13854 9.12299 6.95237 9.11351 5.12742 9.1111L3.13353 9.10845L3.48522 8.77935C3.67866 8.59837 4.33809 8.04704 4.95063 7.5542C6.24499 6.51274 6.87476 5.87907 7.13502 5.3561C7.6839 4.25326 7.61016 2.71813 6.96281 1.77125C6.51885 1.12181 5.73679 0.585185 4.92935 0.375844C4.48234 0.259904 3.71629 0.215705 3.3024 0.281915ZM12.7466 0.307398C12.6499 0.352598 12.4884 0.478837 12.3878 0.587833C11.8881 1.12916 7.0281 7.00752 6.942 7.17466C6.75155 7.54443 6.89645 8.02161 7.28848 8.31558C7.44475 8.43276 7.5315 8.43753 9.81999 8.45359L12.1897 8.47019V9.37182C12.1897 10.2099 12.199 10.2871 12.3216 10.468C12.5422 10.7934 12.7455 10.9088 13.0983 10.9088C13.4372 10.9088 13.6329 10.8042 13.8567 10.5038C13.9647 10.3587 13.9795 10.242 13.9962 9.40389L14.0149 8.46636H14.2915C14.8718 8.46636 15.3159 8.07093 15.3159 7.55414C15.3159 7.02046 14.9157 6.64192 14.3514 6.64192H14.01L13.9938 3.73294C13.9779 0.899812 13.9744 0.819773 13.8567 0.661517C13.5755 0.283622 13.1129 0.136018 12.7466 0.307398ZM12.17 6.6225C12.158 6.63451 11.6026 6.63721 10.9358 6.62845L9.72339 6.6125L10.9419 5.15094L12.1604 3.68939L12.1761 5.145C12.1847 5.94557 12.182 6.61044 12.17 6.6225ZM20.5718 6.08453C20.3387 6.18781 6.84657 19.6877 6.7005 19.9639C6.43168 20.4723 6.75138 21.1683 7.3012 21.2719C7.83502 21.3724 7.36509 21.806 14.7895 14.3624C18.813 10.3284 21.6727 7.41713 21.7208 7.3059C22.0437 6.55988 21.2952 5.76425 20.5718 6.08453ZM17.6422 13.8662C17.3999 13.9884 17.2009 14.2673 17.1459 14.5616C17.0971 14.8231 17.2926 15.2548 17.5427 15.4374C17.7001 15.5524 17.7992 15.559 19.6089 15.5752C20.6543 15.5845 21.5097 15.6062 21.5097 15.6234C21.5097 15.6405 20.4568 17.305 19.17 19.3221C17.8832 21.3393 16.7885 23.0709 16.7374 23.17C16.5551 23.5241 16.6602 23.9755 16.99 24.2541C17.334 24.5447 17.8797 24.5179 18.1787 24.1958C18.4138 23.9425 23.9855 15.1751 24.0725 14.9216C24.2106 14.5192 24.0016 14.0512 23.598 13.8589C23.4212 13.7746 23.0635 13.7631 20.6216 13.7633C18.0963 13.7633 17.8278 13.7726 17.6422 13.8662Z" fill="black"/>
</svg>
