<svg width="22" height="22" viewBox="0 0 22 22" fill="none" xmlns="http://www.w3.org/2000/svg">
<mask id="path-1-outside-1_278_1742" maskUnits="userSpaceOnUse" x="8.23535" y="0" width="14" height="22" fill="black">
<rect fill="white" x="8.23535" width="14" height="22"/>
<path fill-rule="evenodd" clip-rule="evenodd" d="M18.8211 1.15924C18.3614 1.38255 9.50132 9.98939 9.33819 10.3711C9.20125 10.6914 9.20104 11.2333 9.33777 11.5543C9.48393 11.8974 18.4982 20.6775 18.8987 20.8669C19.0693 20.9475 19.3229 21 19.5422 21C20.6149 21 21.3085 19.9387 20.8631 18.9791C20.7559 18.7483 19.7774 17.7557 16.7615 14.819L12.8007 10.9621L16.7273 7.13946C19.7226 4.22345 20.6872 3.24491 20.7942 3.01365C21.3659 1.77832 20.0643 0.555042 18.8211 1.15924Z"/>
</mask>
<path fill-rule="evenodd" clip-rule="evenodd" d="M18.8211 1.15924C18.3614 1.38255 9.50132 9.98939 9.33819 10.3711C9.20125 10.6914 9.20104 11.2333 9.33777 11.5543C9.48393 11.8974 18.4982 20.6775 18.8987 20.8669C19.0693 20.9475 19.3229 21 19.5422 21C20.6149 21 21.3085 19.9387 20.8631 18.9791C20.7559 18.7483 19.7774 17.7557 16.7615 14.819L12.8007 10.9621L16.7273 7.13946C19.7226 4.22345 20.6872 3.24491 20.7942 3.01365C21.3659 1.77832 20.0643 0.555042 18.8211 1.15924Z" fill="#5680E9"/>
<path fill-rule="evenodd" clip-rule="evenodd" d="M18.8211 1.15924C18.3614 1.38255 9.50132 9.98939 9.33819 10.3711C9.20125 10.6914 9.20104 11.2333 9.33777 11.5543C9.48393 11.8974 18.4982 20.6775 18.8987 20.8669C19.0693 20.9475 19.3229 21 19.5422 21C20.6149 21 21.3085 19.9387 20.8631 18.9791C20.7559 18.7483 19.7774 17.7557 16.7615 14.819L12.8007 10.9621L16.7273 7.13946C19.7226 4.22345 20.6872 3.24491 20.7942 3.01365C21.3659 1.77832 20.0643 0.555042 18.8211 1.15924Z" stroke="#5680E9" mask="url(#path-1-outside-1_278_1742)"/>
<mask id="path-2-outside-2_278_1742" maskUnits="userSpaceOnUse" x="-0.235352" y="-1.1365e-06" width="14" height="22" fill="black">
<rect fill="white" x="-0.235352" y="-1.1365e-06" width="14" height="22"/>
<path fill-rule="evenodd" clip-rule="evenodd" d="M3.1789 20.8408C3.63857 20.6175 12.4987 12.0106 12.6618 11.6289C12.7988 11.3086 12.799 10.7667 12.6622 10.4457C12.5161 10.1026 3.50183 1.32247 3.10132 1.13311C2.93071 1.05248 2.67712 1 2.45781 1C1.38511 1 0.691454 2.06126 1.13692 3.02094C1.24408 3.25173 2.22264 4.24428 5.23847 7.18097L9.19934 11.0379L5.27269 14.8605C2.27736 17.7765 1.31279 18.7551 1.20577 18.9864C0.634097 20.2217 1.93566 21.445 3.1789 20.8408Z"/>
</mask>
<path fill-rule="evenodd" clip-rule="evenodd" d="M3.1789 20.8408C3.63857 20.6175 12.4987 12.0106 12.6618 11.6289C12.7988 11.3086 12.799 10.7667 12.6622 10.4457C12.5161 10.1026 3.50183 1.32247 3.10132 1.13311C2.93071 1.05248 2.67712 1 2.45781 1C1.38511 1 0.691454 2.06126 1.13692 3.02094C1.24408 3.25173 2.22264 4.24428 5.23847 7.18097L9.19934 11.0379L5.27269 14.8605C2.27736 17.7765 1.31279 18.7551 1.20577 18.9864C0.634097 20.2217 1.93566 21.445 3.1789 20.8408Z" fill="#5680E9"/>
<path fill-rule="evenodd" clip-rule="evenodd" d="M3.1789 20.8408C3.63857 20.6175 12.4987 12.0106 12.6618 11.6289C12.7988 11.3086 12.799 10.7667 12.6622 10.4457C12.5161 10.1026 3.50183 1.32247 3.10132 1.13311C2.93071 1.05248 2.67712 1 2.45781 1C1.38511 1 0.691454 2.06126 1.13692 3.02094C1.24408 3.25173 2.22264 4.24428 5.23847 7.18097L9.19934 11.0379L5.27269 14.8605C2.27736 17.7765 1.31279 18.7551 1.20577 18.9864C0.634097 20.2217 1.93566 21.445 3.1789 20.8408Z" stroke="#5680E9" mask="url(#path-2-outside-2_278_1742)"/>
</svg>
