<svg width="30" height="30" viewBox="0 0 30 30" fill="none" xmlns="http://www.w3.org/2000/svg">
<circle cx="15" cy="15" r="15" fill="#5680E9"/>
<mask id="path-2-outside-1_1186_1814" maskUnits="userSpaceOnUse" x="5.00146" y="7.3999" width="20" height="17" fill="black">
<rect fill="white" x="5.00146" y="7.3999" width="20" height="17"/>
<path fill-rule="evenodd" clip-rule="evenodd" d="M10.2307 8.45377C8.15628 8.77624 6.54002 10.303 6.08312 12.3715C5.97275 12.8713 5.97454 13.8282 6.08682 14.352C6.20047 14.882 6.3087 15.1883 6.56615 15.7084C6.94362 16.471 7.40883 17.0271 8.62691 18.1716C9.8715 19.3412 11.2311 20.5276 13.3272 22.2733C13.9866 22.8225 14.5722 23.2959 14.6286 23.3253C14.7719 23.4002 15.1045 23.4244 15.2644 23.3716C15.4082 23.3241 15.554 23.2103 16.7972 22.1751C19.4485 19.9674 21.6512 17.9903 22.4645 17.0883C22.9519 16.5476 23.2078 16.1826 23.4565 15.6731C23.6892 15.1965 23.808 14.853 23.9189 14.3367C24.0211 13.8602 24.0301 12.898 23.9365 12.4495C23.6098 10.8837 22.6447 9.61351 21.2633 8.93105C19.9063 8.26067 18.3605 8.22336 16.9801 8.82772C16.3749 9.09269 15.9482 9.39325 15.3454 9.97925L15.0025 10.3125L14.6234 9.94451C14.0477 9.38564 13.5883 9.06831 12.9683 8.80136C12.1466 8.44761 11.114 8.31648 10.2307 8.45377ZM11.5527 10.0402C12.074 10.1296 12.5131 10.3047 12.9412 10.5938C13.0574 10.6722 13.4695 11.0483 13.8569 11.4294C14.3878 11.9516 14.596 12.1339 14.7021 12.1696C14.8983 12.2356 15.2048 12.2271 15.3537 12.1516C15.4215 12.1172 15.7781 11.7924 16.1461 11.4299C16.5142 11.0674 16.9208 10.6962 17.0498 10.6052C17.3598 10.3864 17.7514 10.2087 18.167 10.0982C18.4562 10.0213 18.5805 10.0081 19.0164 10.0081C19.457 10.0081 19.5755 10.021 19.8793 10.1016C21.5025 10.5323 22.5636 12.0468 22.3948 13.692C22.3265 14.3577 22.064 15.0342 21.6653 15.5721C21.3106 16.0508 20.2685 17.069 18.8746 18.2989C17.5329 19.4829 15.0597 21.5744 15.0015 21.5744C14.9844 21.5744 14.5693 21.2387 14.0791 20.8284C11.0018 18.2529 8.89929 16.3298 8.34878 15.5871C7.72228 14.7418 7.46852 13.7114 7.64553 12.7313C7.96736 10.9491 9.73859 9.72918 11.5527 10.0402Z"/>
</mask>
<path fill-rule="evenodd" clip-rule="evenodd" d="M10.2307 8.45377C8.15628 8.77624 6.54002 10.303 6.08312 12.3715C5.97275 12.8713 5.97454 13.8282 6.08682 14.352C6.20047 14.882 6.3087 15.1883 6.56615 15.7084C6.94362 16.471 7.40883 17.0271 8.62691 18.1716C9.8715 19.3412 11.2311 20.5276 13.3272 22.2733C13.9866 22.8225 14.5722 23.2959 14.6286 23.3253C14.7719 23.4002 15.1045 23.4244 15.2644 23.3716C15.4082 23.3241 15.554 23.2103 16.7972 22.1751C19.4485 19.9674 21.6512 17.9903 22.4645 17.0883C22.9519 16.5476 23.2078 16.1826 23.4565 15.6731C23.6892 15.1965 23.808 14.853 23.9189 14.3367C24.0211 13.8602 24.0301 12.898 23.9365 12.4495C23.6098 10.8837 22.6447 9.61351 21.2633 8.93105C19.9063 8.26067 18.3605 8.22336 16.9801 8.82772C16.3749 9.09269 15.9482 9.39325 15.3454 9.97925L15.0025 10.3125L14.6234 9.94451C14.0477 9.38564 13.5883 9.06831 12.9683 8.80136C12.1466 8.44761 11.114 8.31648 10.2307 8.45377ZM11.5527 10.0402C12.074 10.1296 12.5131 10.3047 12.9412 10.5938C13.0574 10.6722 13.4695 11.0483 13.8569 11.4294C14.3878 11.9516 14.596 12.1339 14.7021 12.1696C14.8983 12.2356 15.2048 12.2271 15.3537 12.1516C15.4215 12.1172 15.7781 11.7924 16.1461 11.4299C16.5142 11.0674 16.9208 10.6962 17.0498 10.6052C17.3598 10.3864 17.7514 10.2087 18.167 10.0982C18.4562 10.0213 18.5805 10.0081 19.0164 10.0081C19.457 10.0081 19.5755 10.021 19.8793 10.1016C21.5025 10.5323 22.5636 12.0468 22.3948 13.692C22.3265 14.3577 22.064 15.0342 21.6653 15.5721C21.3106 16.0508 20.2685 17.069 18.8746 18.2989C17.5329 19.4829 15.0597 21.5744 15.0015 21.5744C14.9844 21.5744 14.5693 21.2387 14.0791 20.8284C11.0018 18.2529 8.89929 16.3298 8.34878 15.5871C7.72228 14.7418 7.46852 13.7114 7.64553 12.7313C7.96736 10.9491 9.73859 9.72918 11.5527 10.0402Z" fill="white"/>
<path fill-rule="evenodd" clip-rule="evenodd" d="M10.2307 8.45377C8.15628 8.77624 6.54002 10.303 6.08312 12.3715C5.97275 12.8713 5.97454 13.8282 6.08682 14.352C6.20047 14.882 6.3087 15.1883 6.56615 15.7084C6.94362 16.471 7.40883 17.0271 8.62691 18.1716C9.8715 19.3412 11.2311 20.5276 13.3272 22.2733C13.9866 22.8225 14.5722 23.2959 14.6286 23.3253C14.7719 23.4002 15.1045 23.4244 15.2644 23.3716C15.4082 23.3241 15.554 23.2103 16.7972 22.1751C19.4485 19.9674 21.6512 17.9903 22.4645 17.0883C22.9519 16.5476 23.2078 16.1826 23.4565 15.6731C23.6892 15.1965 23.808 14.853 23.9189 14.3367C24.0211 13.8602 24.0301 12.898 23.9365 12.4495C23.6098 10.8837 22.6447 9.61351 21.2633 8.93105C19.9063 8.26067 18.3605 8.22336 16.9801 8.82772C16.3749 9.09269 15.9482 9.39325 15.3454 9.97925L15.0025 10.3125L14.6234 9.94451C14.0477 9.38564 13.5883 9.06831 12.9683 8.80136C12.1466 8.44761 11.114 8.31648 10.2307 8.45377ZM11.5527 10.0402C12.074 10.1296 12.5131 10.3047 12.9412 10.5938C13.0574 10.6722 13.4695 11.0483 13.8569 11.4294C14.3878 11.9516 14.596 12.1339 14.7021 12.1696C14.8983 12.2356 15.2048 12.2271 15.3537 12.1516C15.4215 12.1172 15.7781 11.7924 16.1461 11.4299C16.5142 11.0674 16.9208 10.6962 17.0498 10.6052C17.3598 10.3864 17.7514 10.2087 18.167 10.0982C18.4562 10.0213 18.5805 10.0081 19.0164 10.0081C19.457 10.0081 19.5755 10.021 19.8793 10.1016C21.5025 10.5323 22.5636 12.0468 22.3948 13.692C22.3265 14.3577 22.064 15.0342 21.6653 15.5721C21.3106 16.0508 20.2685 17.069 18.8746 18.2989C17.5329 19.4829 15.0597 21.5744 15.0015 21.5744C14.9844 21.5744 14.5693 21.2387 14.0791 20.8284C11.0018 18.2529 8.89929 16.3298 8.34878 15.5871C7.72228 14.7418 7.46852 13.7114 7.64553 12.7313C7.96736 10.9491 9.73859 9.72918 11.5527 10.0402Z" stroke="white" stroke-width="0.5" mask="url(#path-2-outside-1_1186_1814)"/>
</svg>
