<svg width="34" height="28" viewBox="0 0 34 28" fill="none" xmlns="http://www.w3.org/2000/svg">
<path d="M1.07837 11.2293L1.15175 11.2137L1.07837 11.2293C1.28178 12.1898 1.4763 12.747 1.9365 13.6882C2.61365 15.0734 3.44879 16.0818 5.61575 18.1435C7.82989 20.2501 10.2481 22.3866 13.9752 25.5295C14.5615 26.0239 15.1151 26.4843 15.5348 26.8278C15.7446 26.9995 15.9211 27.1422 16.0516 27.2454C16.1169 27.2969 16.1709 27.3388 16.212 27.3697C16.2508 27.3988 16.2832 27.4221 16.3021 27.4321L16.3021 27.4321C16.4432 27.5067 16.667 27.5522 16.8857 27.5684C17.1048 27.5845 17.3352 27.5723 17.4912 27.5202C17.6327 27.4729 17.7704 27.3926 18.1435 27.0977C18.5176 26.802 19.1361 26.284 20.2408 25.3526C24.9537 21.3793 28.8737 17.8172 30.3236 16.189L30.2675 16.1391L30.3236 16.189C31.1934 15.2119 31.6528 14.5492 32.0987 13.6244C32.515 12.761 32.7282 12.137 32.9265 11.2017C33.0189 10.7658 33.0684 10.1126 33.0744 9.46954C33.0803 8.8267 33.0428 8.1856 32.958 7.77412C32.3727 4.93445 30.6432 2.62827 28.1656 1.38899C25.7334 0.172345 22.9617 0.104533 20.4872 1.2015C19.401 1.68297 18.6352 2.22992 17.5588 3.28938L17.0018 3.83755L16.3805 3.22681C15.3518 2.21562 14.5275 1.63868 13.4154 1.15388L13.3855 1.22263L13.4154 1.15388C11.9416 0.511427 10.0913 0.273519 8.50697 0.522878C4.78772 1.10827 1.89056 3.88013 1.07189 7.63287L1.14515 7.64885L1.07189 7.63287C0.972124 8.09028 0.923797 8.75191 0.925023 9.41521C0.926248 10.0787 0.977067 10.7507 1.07837 11.2293ZM14.9123 6.00618L14.9652 5.95304C15.9091 6.89306 16.2791 7.22124 16.4679 7.28548L16.4437 7.35647C16.4437 7.35648 16.4437 7.35648 16.4437 7.35648C16.6287 7.41947 16.8615 7.44584 17.0806 7.43969C17.2985 7.43359 17.5137 7.39504 17.6604 7.31973L17.6262 7.25301L17.6604 7.31973C17.6821 7.30858 17.7099 7.2889 17.7402 7.26564C17.7717 7.24141 17.8099 7.21008 17.8537 7.17281C17.9414 7.0982 18.0532 6.9982 18.1812 6.88013C18.4374 6.64391 18.7602 6.33394 19.0879 6.00709C19.7432 5.35351 20.4617 4.69018 20.6851 4.53057L20.6419 4.47011L20.6851 4.53056C21.228 4.14259 21.9157 3.82631 22.6471 3.62934C23.1527 3.49326 23.3666 3.46976 24.1377 3.46976C24.9168 3.46976 25.1204 3.49257 25.6522 3.63544C28.5026 4.40128 30.3654 7.0937 30.0691 10.0182C29.949 11.2033 29.4872 12.4083 28.7863 13.3657C28.1611 14.2198 26.3148 16.0474 23.8356 18.2623C22.6434 19.3274 20.9484 20.801 19.5383 22.0084C18.8333 22.612 18.1998 23.149 17.7362 23.5349C17.5043 23.7279 17.3153 23.8828 17.1811 23.9894C17.114 24.0428 17.0612 24.0835 17.024 24.1107C17.0156 24.1169 17.0081 24.1222 17.0017 24.1267C17.0013 24.1264 17.001 24.1262 17.0006 24.1259C16.977 24.1088 16.9431 24.083 16.8998 24.0491C16.8134 23.9814 16.6916 23.8832 16.5431 23.7616C16.2463 23.5186 15.8442 23.1831 15.4087 22.8141C12.6738 20.4966 10.3726 18.473 8.63306 16.862C6.89156 15.2492 5.7179 14.0543 5.23352 13.3927C4.13113 11.8868 3.68574 10.0526 3.99662 8.30976C4.56146 5.14274 7.67131 2.9736 10.856 3.52649C11.7724 3.68558 12.543 3.9967 13.295 4.51084C13.3928 4.57775 13.6233 4.77807 13.9196 5.05182C14.2139 5.32375 14.5685 5.6638 14.9123 6.00618Z" fill="white" stroke="white" stroke-width="0.15"/>
</svg>
