<svg width="30" height="26" viewBox="0 0 30 26" fill="none" xmlns="http://www.w3.org/2000/svg">
<path fill-rule="evenodd" clip-rule="evenodd" d="M14.2644 0.383957C10.0947 1.17733 6.78607 3.67539 4.95797 7.41054L4.39383 8.56303L4.00934 7.75326C3.7977 7.3078 3.43773 6.74429 3.20917 6.50084C2.64343 5.89814 1.85632 5.87363 1.28898 6.44087C0.538652 7.19121 0.557044 7.26916 2.29292 10.6822C3.16026 12.3875 4.01293 13.9172 4.18792 14.0815C4.79978 14.6562 5.23838 14.5221 8.15598 12.8681C9.62198 12.037 10.9564 11.2107 11.1213 11.032C11.6596 10.4487 11.447 9.28098 10.7355 8.91308C10.1154 8.59247 9.70287 8.69321 8.27019 9.5151C7.51107 9.9507 6.88989 10.2486 6.88989 10.1774C6.88989 9.89833 7.60156 8.37847 8.1064 7.5791C9.21909 5.81766 11.5383 4.06261 13.5254 3.47844C17.5006 2.3097 21.8697 3.69711 24.2969 6.89899C25.6241 8.64977 26.3477 10.7978 26.3477 12.9872C26.3477 14.5845 26.0542 15.8524 25.3451 17.3179C24.0555 19.9833 21.8775 21.7806 18.9511 22.5945C17.5168 22.9933 15.3968 22.9957 13.9151 22.6002C11.6592 21.998 9.36423 20.3404 8.09947 18.3995C7.48268 17.4529 7.02369 17.1714 6.31375 17.3047C5.72455 17.4151 5.28515 17.9022 5.19973 18.5395C5.13869 18.9943 5.21225 19.1766 5.82984 20.0998C8.3247 23.8292 12.6653 25.9956 17.1387 25.7439C22.8751 25.4211 27.6984 21.2918 28.9664 15.618C29.2536 14.3327 29.2536 11.6418 28.9664 10.3565C28.4379 7.99205 27.2394 5.77435 25.5734 4.07847C23.8955 2.37059 21.8472 1.18359 19.5508 0.588497C18.1245 0.218992 15.6376 0.122652 14.2644 0.383957ZM15.7005 6.11095C15.0716 6.4594 15.0292 6.70924 15.0242 10.0957C15.0204 12.5987 15.0598 13.3427 15.2104 13.6268C15.5046 14.1814 19.8337 18.4188 20.2736 18.5828C21.1654 18.9152 22.083 18.2224 22.083 17.2169C22.083 16.6887 22.0099 16.5965 19.9506 14.5236L17.8182 12.3775V9.54069V6.70391L17.4287 6.31442C16.9929 5.87869 16.2727 5.79381 15.7005 6.11095Z" fill="white"/>
</svg>
