<svg width="46" height="52" viewBox="0 0 46 52" fill="none" xmlns="http://www.w3.org/2000/svg">
<mask id="path-1-outside-1_862_2762" maskUnits="userSpaceOnUse" x="0" y="0" width="46" height="52" fill="white">
<rect fill="white" width="46" height="52"/>
<path fill-rule="evenodd" clip-rule="evenodd" d="M23.0003 1C34.8462 1 45 10.1667 45 22.6667C45 40.1667 24 51 22.9995 51C21.9989 51 1 40.1667 1 22.6667C1 10.1667 11.1538 1 23.0003 1ZM6.07692 22.6667C6.07692 12.6667 14.5385 6 22.9996 6C31.4607 6 39.9231 12.9892 39.9231 22.6667C39.9231 35.2389 24.8769 44.1066 23.1591 45.078C23.0562 45.1362 22.9438 45.1362 22.8409 45.078C21.1231 44.1066 6.07692 35.2389 6.07692 22.6667Z"/>
<path fill-rule="evenodd" clip-rule="evenodd" d="M23 12C16.2308 12 12.15 16.8333 12.15 22.6667C12.15 28.5 16.2308 33.33 22.9996 33.33C29.7684 33.33 33.85 28.5 33.85 22.6667C33.85 16.8333 29.7692 12 23 12ZM16.23 22.6667C16.23 18.5 19.6154 16 23 16C26.3846 16 29.77 18.5 29.77 22.6667C29.77 26.8333 26.3846 29.33 22.9996 29.33C19.6154 29.33 16.23 26.8333 16.23 22.6667Z"/>
</mask>
<path fill-rule="evenodd" clip-rule="evenodd" d="M23.0003 1C34.8462 1 45 10.1667 45 22.6667C45 40.1667 24 51 22.9995 51C21.9989 51 1 40.1667 1 22.6667C1 10.1667 11.1538 1 23.0003 1ZM6.07692 22.6667C6.07692 12.6667 14.5385 6 22.9996 6C31.4607 6 39.9231 12.9892 39.9231 22.6667C39.9231 35.2389 24.8769 44.1066 23.1591 45.078C23.0562 45.1362 22.9438 45.1362 22.8409 45.078C21.1231 44.1066 6.07692 35.2389 6.07692 22.6667Z" fill="#5680E9"/>
<path fill-rule="evenodd" clip-rule="evenodd" d="M23 12C16.2308 12 12.15 16.8333 12.15 22.6667C12.15 28.5 16.2308 33.33 22.9996 33.33C29.7684 33.33 33.85 28.5 33.85 22.6667C33.85 16.8333 29.7692 12 23 12ZM16.23 22.6667C16.23 18.5 19.6154 16 23 16C26.3846 16 29.77 18.5 29.77 22.6667C29.77 26.8333 26.3846 29.33 22.9996 29.33C19.6154 29.33 16.23 26.8333 16.23 22.6667Z" fill="#5680E9"/>
<path fill-rule="evenodd" clip-rule="evenodd" d="M23.0003 1C34.8462 1 45 10.1667 45 22.6667C45 40.1667 24 51 22.9995 51C21.9989 51 1 40.1667 1 22.6667C1 10.1667 11.1538 1 23.0003 1ZM6.07692 22.6667C6.07692 12.6667 14.5385 6 22.9996 6C31.4607 6 39.9231 12.9892 39.9231 22.6667C39.9231 35.2389 24.8769 44.1066 23.1591 45.078C23.0562 45.1362 22.9438 45.1362 22.8409 45.078C21.1231 44.1066 6.07692 35.2389 6.07692 22.6667Z" stroke="#5680E9" stroke-width="2" mask="url(#path-1-outside-1_862_2762)"/>
<path fill-rule="evenodd" clip-rule="evenodd" d="M23 12C16.2308 12 12.15 16.8333 12.15 22.6667C12.15 28.5 16.2308 33.33 22.9996 33.33C29.7684 33.33 33.85 28.5 33.85 22.6667C33.85 16.8333 29.7692 12 23 12ZM16.23 22.6667C16.23 18.5 19.6154 16 23 16C26.3846 16 29.77 18.5 29.77 22.6667C29.77 26.8333 26.3846 29.33 22.9996 29.33C19.6154 29.33 16.23 26.8333 16.23 22.6667Z" stroke="#5680E9" stroke-width="2" mask="url(#path-1-outside-1_862_2762)"/>
</svg>
