<svg width="28" height="28" viewBox="0 0 28 28" fill="none" xmlns="http://www.w3.org/2000/svg">
<path d="M1.04504 25.0423C1.09788 24.846 1.20802 24.685 1.55223 24.3119C1.90206 23.9326 2.52908 23.2995 3.67048 22.1544L3.84755 22.3309L3.67048 22.1544C4.61695 21.2048 5.23226 20.5792 5.60503 20.1836C5.78461 19.9931 5.90387 19.8602 5.97604 19.7721C4.84941 18.1939 4.17843 16.7083 3.81571 14.9827C3.61867 14.0453 3.54527 12.3056 3.66252 11.3546L3.91064 11.3852L3.66252 11.3546C3.86663 9.69972 4.42056 8.05415 5.2236 6.72764L5.43746 6.85711L5.2236 6.72763C6.45327 4.69657 8.12119 3.17211 10.2283 2.15527C11.3767 1.60106 12.3322 1.30098 13.5422 1.11566C13.8459 1.06913 14.3888 1.02937 14.8984 1.00673C15.4027 0.984331 15.9091 0.977012 16.1309 1.00236C17.9944 1.2153 19.1587 1.53545 20.5169 2.21691C21.6449 2.78287 22.4862 3.37721 23.4034 4.25592L23.4034 4.25592C27.1052 7.80242 28.0722 13.3376 25.783 17.8926C23.283 22.8672 17.7298 25.403 12.3598 24.0197C10.9221 23.6494 9.67802 23.0454 8.2246 22.017M1.04504 25.0423L1.28646 25.1073L1.04506 25.0423C1.04505 25.0423 1.04505 25.0423 1.04504 25.0423ZM1.04504 25.0423C0.794693 25.9722 1.37217 26.8797 2.32158 26.9921C2.32775 26.9928 2.33395 26.9935 2.34017 26.9943C2.48381 27.0114 2.64029 27.03 2.81377 26.9881C2.9956 26.9442 3.17234 26.8414 3.39132 26.6691C3.81834 26.3332 4.50095 25.6539 5.8243 24.3369L5.86887 24.2926C6.8119 23.354 7.43063 22.7466 7.82094 22.3796C8.00786 22.2039 8.13808 22.0875 8.2246 22.017M8.2246 22.017C8.1812 21.9863 8.13762 21.9552 8.09383 21.9237C8.18149 21.9867 8.26894 21.9655 8.28324 21.9618C8.3063 21.956 8.31804 21.9483 8.31285 21.9513C8.30478 21.9558 8.2815 21.9712 8.23695 22.007C8.23294 22.0102 8.22882 22.0135 8.2246 22.017ZM6.07132 19.9043L6.07121 19.9041L6.07132 19.9043ZM13.5694 4.20002L13.5694 4.20002C11.2875 4.68404 9.39718 5.95139 8.12069 7.84947C6.14706 10.7842 6.14116 14.5496 8.1081 17.5196L7.89967 17.6576L8.10811 17.5196C8.62618 18.3019 9.69552 19.3701 10.4793 19.8882C12.1299 20.9793 14.0481 21.4778 15.9808 21.32L16.0011 21.5692L15.9808 21.32C19.0363 21.0706 21.67 19.3068 23.0279 16.6048C25.0407 12.5995 23.7137 7.77173 19.9351 5.35442L19.9351 5.35442C18.9903 4.75001 17.6323 4.26052 16.4214 4.0915L16.4214 4.0915C16.12 4.04941 15.5695 4.04125 15.001 4.06284C14.433 4.0844 13.8785 4.13445 13.5694 4.20002Z" fill="white" stroke="white" stroke-width="0.5"/>
</svg>
