<svg width="20" height="20" viewBox="0 0 20 20" fill="none" xmlns="http://www.w3.org/2000/svg">
<path fill-rule="evenodd" clip-rule="evenodd" d="M11.6472 0.0112665C13.0899 0.176115 13.9788 0.421915 15.018 0.943304C15.8841 1.3779 16.5272 1.83218 17.2318 2.50719C20.0705 5.22679 20.8113 9.47058 19.0567 12.9618C17.1391 16.7775 12.8812 18.7212 8.76374 17.6605C7.63197 17.369 6.65472 16.8884 5.48696 16.049C5.4379 16.0137 4.96849 16.455 3.49126 17.9251C1.35991 20.0462 1.36455 20.0426 0.87323 19.9845C0.255199 19.9113 -0.127798 19.3226 0.0392189 18.7023C0.0942211 18.4979 0.254543 18.3241 2.04577 16.527C3.52843 15.0396 3.98155 14.5588 3.94635 14.5105C3.0329 13.255 2.49828 12.0892 2.21251 10.7297C2.06258 10.0163 2.00598 8.67505 2.0952 7.95136C2.25202 6.67999 2.67771 5.4175 3.29143 4.40372C4.23554 2.84432 5.51392 1.67626 7.13008 0.896351C8.01305 0.470223 8.743 0.241166 9.67092 0.0990454C10.1246 0.0295518 11.3362 -0.0242753 11.6472 0.0112665ZM9.62195 2.13035C7.78542 2.51991 6.26021 3.54174 5.23114 5.07191C3.6403 7.43745 3.63614 10.4734 5.22051 12.8657C5.64096 13.5006 6.49758 14.3562 7.13354 14.7766C8.46266 15.6552 10.009 16.0575 11.5678 15.9303C14.0288 15.7294 16.1531 14.3077 17.2481 12.1287C18.8702 8.90093 17.8004 5.00933 14.7555 3.06141C13.9896 2.57145 12.8985 2.17894 11.9242 2.04295C11.4155 1.97191 10.1406 2.02031 9.62195 2.13035Z" fill="#5680E9"/>
</svg>
