<svg width="15" height="15" viewBox="0 0 15 15" fill="none" xmlns="http://www.w3.org/2000/svg">
<path fill-rule="evenodd" clip-rule="evenodd" d="M6.84701 0.0309907C3.55534 0.33586 0.819687 2.75703 0.150645 5.9575C-0.050215 6.91833 -0.050215 8.08628 0.150645 9.04712C0.569083 11.0488 1.84541 12.8384 3.62225 13.9147C6.46952 15.6393 10.1376 15.2806 12.5892 13.0377C13.8173 11.9141 14.5513 10.6174 14.9176 8.92392C14.9991 8.54694 15 8.53173 15 7.50231C15 6.47288 14.9991 6.45767 14.9176 6.0807C14.6674 4.92406 14.2783 4.02481 13.6494 3.14954C12.0981 0.99074 9.474 -0.212295 6.84701 0.0309907ZM7.93132 1.35787C8.1584 1.46858 8.44224 1.73725 8.67703 2.06372C8.88696 2.3556 9.22128 3.01051 9.35853 3.39869C9.40698 3.53572 9.45587 3.6709 9.46714 3.69913C9.4866 3.74767 9.38252 3.75043 7.52715 3.75043C6.44886 3.75043 5.56662 3.74377 5.56662 3.73562C5.56662 3.67574 5.83845 3.00022 5.97019 2.73264C6.32865 2.00472 6.75992 1.50314 7.17753 1.32838C7.41365 1.22957 7.69034 1.24039 7.93132 1.35787ZM4.84901 2.13096C4.60223 2.6229 4.34795 3.28162 4.255 3.66982L4.23569 3.75043H3.3853C2.91756 3.75043 2.53488 3.7428 2.53488 3.73345C2.53488 3.68864 2.91309 3.26453 3.18859 3.00046C3.50363 2.69849 3.82423 2.44201 4.13906 2.24015C4.27828 2.15086 4.99765 1.76125 5.0293 1.75797C5.03324 1.75756 4.95212 1.9254 4.84901 2.13096ZM10.275 1.88855C11.0434 2.27394 11.7537 2.82482 12.2704 3.43629C12.3824 3.56875 12.4836 3.69365 12.4953 3.71379C12.5121 3.74275 12.3382 3.75043 11.6659 3.75043H10.8152L10.7328 3.47929C10.6072 3.06597 10.3777 2.49398 10.188 2.12164C10.0942 1.93736 10.0295 1.78655 10.0444 1.78655C10.0594 1.78655 10.1631 1.83245 10.275 1.88855ZM3.93469 5.12074C3.88165 5.44077 3.82779 5.93103 3.79623 6.38114L3.7608 6.88676H2.51266H1.26453L1.28048 6.80616C1.28925 6.76184 1.30491 6.6596 1.31527 6.57899C1.36475 6.19454 1.55454 5.50554 1.71131 5.14135L1.7675 5.01082H2.86019H3.95291L3.93469 5.12074ZM9.81726 5.09143C9.88867 5.43426 10.0112 6.49745 10.0112 6.77424V6.88676H7.524H5.0368V6.71007C5.0368 6.41922 5.17747 5.20076 5.22874 5.04746C5.2384 5.01856 5.72309 5.01082 7.52074 5.01082H9.80048L9.81726 5.09143ZM13.3417 5.17204C13.5544 5.71591 13.7483 6.49352 13.7491 6.80616L13.7494 6.88676H12.5162H11.2831L11.264 6.61563C11.2288 6.11484 11.1851 5.67239 11.1425 5.38475C11.1193 5.22767 11.1003 5.07912 11.1003 5.05461C11.1003 5.01548 11.2318 5.01103 12.1923 5.0178L13.2843 5.02548L13.3417 5.17204ZM3.79623 8.62348C3.82779 9.07358 3.88165 9.56385 3.93469 9.88387L3.95291 9.99379H2.86019H1.7675L1.71131 9.86327C1.55454 9.49907 1.36475 8.81007 1.31527 8.42562C1.30491 8.34502 1.28925 8.24278 1.28048 8.19846L1.26453 8.11785H2.51266H3.7608L3.79623 8.62348ZM10.0112 8.23038C10.0112 8.50728 9.88867 9.57045 9.81723 9.91336L9.8004 9.99414L7.51447 9.98664L5.22851 9.97914L5.17891 9.66612C5.1133 9.25206 5.0368 8.51315 5.0368 8.29346V8.11785H7.524H10.0112V8.23038ZM13.7491 8.19846C13.7483 8.5111 13.5544 9.2887 13.3417 9.83258L13.2843 9.97914L12.1923 9.98682C11.2318 9.99359 11.1003 9.98913 11.1003 9.95C11.1003 9.9255 11.1193 9.77695 11.1425 9.61986C11.1851 9.33223 11.2288 8.88977 11.264 8.38898L11.2831 8.11785H12.5162H13.7494L13.7491 8.19846ZM4.255 11.3348C4.34798 11.7231 4.60223 12.3817 4.84916 12.8739L5.03674 13.2479L4.73866 13.0989C4.13679 12.7981 3.68135 12.4765 3.18859 12.0042C2.91309 11.7401 2.53488 11.316 2.53488 11.2712C2.53488 11.2618 2.91756 11.2542 3.3853 11.2542H4.23569L4.255 11.3348ZM9.46714 11.3055C9.45587 11.3337 9.40698 11.4689 9.35853 11.6059C9.22128 11.9941 8.88696 12.649 8.67703 12.9409C7.88569 14.0412 7.08093 14.0097 6.2983 12.8475C6.09032 12.5387 5.84463 12.0424 5.68742 11.6134C5.62099 11.4321 5.56662 11.2771 5.56662 11.269C5.56662 11.2608 6.44886 11.2542 7.52715 11.2542C9.38252 11.2542 9.4866 11.2569 9.46714 11.3055ZM12.4953 11.2908C12.4836 11.311 12.3824 11.4359 12.2704 11.5683C11.7537 12.1798 11.0434 12.7307 10.275 13.1161C10.1631 13.1722 10.0594 13.2181 10.0444 13.2181C10.0295 13.2181 10.0942 13.0673 10.188 12.883C10.3777 12.5106 10.6072 11.9386 10.7328 11.5253L10.8152 11.2542H11.6659C12.3382 11.2542 12.5121 11.2619 12.4953 11.2908Z" fill="black"/>
</svg>
